<?xml version="1.0" standalone="no"?>
<!DOCTYPE svg PUBLIC "-//W3C//DTD SVG 20010904//EN"
 "http://www.w3.org/TR/2001/REC-SVG-20010904/DTD/svg10.dtd">
<svg version="1.0" xmlns="http://www.w3.org/2000/svg"
 width="258.000000pt" height="560.000000pt" viewBox="0 0 258.000000 560.000000"
 preserveAspectRatio="xMidYMid meet">
<metadata>
Created by potrace 1.16, written by Peter Selinger 2001-2019
</metadata>
<g transform="translate(0.000000,560.000000) scale(0.100000,-0.100000)"
fill="#000000" stroke="none">
<path d="M1180 3740 l0 -100 25 0 c24 0 25 3 25 55 0 52 1 55 25 55 24 0 25
-3 25 -55 0 -53 1 -55 26 -55 26 0 26 1 22 60 -2 33 -9 65 -15 71 -12 12 -42
14 -65 4 -15 -6 -18 -2 -18 29 0 32 -3 36 -25 36 l-25 0 0 -100z"/>
<path d="M882 3778 c-47 -12 -41 -32 7 -24 28 4 42 2 51 -9 14 -17 5 -23 -49
-27 -41 -4 -61 -29 -45 -55 15 -24 164 -29 164 -7 0 8 -4 14 -10 14 -5 0 -10
20 -10 44 0 24 -6 48 -12 53 -20 16 -60 20 -96 11z"/>
<path d="M1695 3715 c14 -36 25 -68 25 -70 0 -3 11 -5 25 -5 21 0 26 7 36 46
13 49 23 48 36 -6 7 -27 15 -36 34 -38 22 -3 27 3 43 55 10 32 21 64 23 71 3
7 -3 12 -14 12 -13 0 -23 -12 -32 -35 -7 -19 -16 -35 -21 -35 -5 0 -12 16 -16
35 -5 30 -10 35 -34 35 -25 0 -29 -4 -35 -40 -4 -22 -10 -40 -14 -40 -4 0 -13
18 -20 40 -10 32 -16 40 -36 40 l-24 0 24 -65z"/>
<path d="M1290 1971 c-13 -25 -13 -177 0 -202 10 -18 26 -19 484 -19 393 0
476 2 485 14 8 9 11 50 9 117 l-3 104 -482 3 c-469 2 -482 2 -493 -17z m365
-82 c5 -14 10 -17 18 -10 7 5 72 9 145 9 130 -1 132 -1 126 -22 -4 -11 -9 -23
-11 -26 -6 -7 -260 -7 -300 0 -31 5 -31 5 -18 38 16 37 31 41 40 11z"/>
</g>
</svg>
