<svg xmlns="http://www.w3.org/2000/svg" width="705" height="697" fill="none" viewBox="0 0 705 697">
  <path fill="#fff" d="M273.265 271.659H79.675V142.145h193.59v129.514Z"/>
  <path fill="#DFDFDF" d="M273.265 271.659s-.02-.81-.03-2.356l-.031-6.834-.071-26.047-.146-94.276.277.277-193.574.069h-.015l.347-.346-.03 129.513-.317-.318 139.469.156 39.846.086 10.599.038 2.736.019c.616.006.94.019.94.019s-.299.012-.902.018l-2.701.019-10.536.039-39.774.085-139.677.156h-.318v-.317l-.029-129.513v-.347h.362l193.574.069.278.001v.277l-.146 94.449-.07 25.985-.031 6.781c-.01 1.528-.03 2.298-.03 2.298Z"/>
  <path fill="#DFDFDF" d="M79.675 153.703c0-.191 43.304-.346 96.71-.346 53.424 0 96.72.155 96.72.346 0 .192-43.296.347-96.72.347-53.406 0-96.71-.155-96.71-.347Z"/>
  <path fill="#DFDFDF" fill-opacity=".302" d="M87.312 147.872a1.551 1.551 0 1 1-3.102 0 1.551 1.551 0 0 1 3.102 0Zm5.317 0a1.55 1.55 0 1 1-3.102 0 1.55 1.55 0 0 1 3.102 0Zm5.241 0a1.55 1.55 0 1 1-3.102 0 1.55 1.55 0 0 1 3.102 0Z"/>
  <path fill="#DFDFDF" d="M147.958 218.806h-51.64v-51.597h51.64v51.597Zm98.759-37.013c0 .192-20.14.347-44.979.347-24.847 0-44.983-.155-44.983-.347 0-.191 20.136-.346 44.983-.346 24.839 0 44.979.155 44.979.346Zm0 9.589c0 .191-20.14.347-44.979.347-24.847 0-44.983-.156-44.983-.347 0-.191 20.136-.347 44.983-.347 24.839 0 44.979.156 44.979.347Zm0 9.588c0 .192-20.14.347-44.979.347-24.847 0-44.983-.155-44.983-.347 0-.191 20.136-.346 44.983-.346 24.839 0 44.979.155 44.979.346Zm-36.793 9.588c0 .048-.744.094-2.09.135l-5.697.111c-4.81.063-11.456.101-18.796.101-7.343 0-13.989-.038-18.8-.101l-5.697-.111c-1.346-.041-2.089-.087-2.089-.135 0-.047.743-.093 2.089-.135l5.697-.109a1519.7 1519.7 0 0 1 18.8-.102c7.34 0 13.986.039 18.796.102l5.697.109c1.346.042 2.09.088 2.09.135Zm-86.106 49.893H99.549v-24.248h24.269v24.248Zm44.011 0h-24.268v-24.248h24.268v24.248Zm44.011 0h-24.268v-24.248h24.268v24.248Zm44.012 0h-24.269v-24.248h24.269v24.248Zm370.165-85.53s-.19.866-1.058 2.187c-.854 1.293-2.558 3.051-5.309 3.885-1.358.402-2.956.579-4.61.27-1.641-.314-3.364-1.02-4.786-2.28a9.428 9.428 0 0 1-1.896-2.188 9.437 9.437 0 0 1-1.227-2.759c-.569-1.984-.463-4.221.306-6.268.804-2.035 2.228-3.765 3.984-4.854a9.465 9.465 0 0 1 2.764-1.223 9.443 9.443 0 0 1 2.874-.352c1.902.02 3.653.652 5.081 1.519 1.434.881 2.499 2.084 3.236 3.293 1.478 2.463 1.561 4.909 1.325 6.439-.244 1.562-.684 2.331-.684 2.331-.066-.021.295-.823.467-2.357a9.775 9.775 0 0 0-1.447-6.205c-.729-1.147-1.765-2.281-3.143-3.104-1.371-.809-3.043-1.394-4.845-1.398a9.012 9.012 0 0 0-2.721.352 8.956 8.956 0 0 0-2.61 1.169c-1.656 1.036-2.994 2.67-3.755 4.592-.726 1.935-.832 4.043-.3 5.921a8.97 8.97 0 0 0 1.15 2.616 8.99 8.99 0 0 0 1.781 2.085c1.338 1.205 2.97 1.893 4.531 2.212 1.573.314 3.102.169 4.414-.193a9.793 9.793 0 0 0 5.241-3.629c.903-1.253 1.174-2.09 1.237-2.061Z"/>
  <path fill="#DFDFDF" d="M635.254 184.24c-.002-.007.113.003.344.03l1.039.129 4.1.55-.096.056 3.24-8.548.054.17a9435.46 9435.46 0 0 0-4.604-3.057l-.083-.055.011-.1a22.339 22.339 0 0 0-.168-5.911l-.018-.11.09-.068 4.425-3.315-.063.243-3.729-8.347.245.127-5.423 1.081-.139.027-.088-.11a22.229 22.229 0 0 0-4.281-4.059l-.119-.087.021-.145.791-5.467.159.271-8.542-3.277.312-.099-3.074 4.59-.09.135-.161-.018a22.342 22.342 0 0 0-5.891.154l-.162.026-.1-.133-3.306-4.43.333.088-8.362 3.71.161-.309 1.071 5.421.034.167-.133.107a22.182 22.182 0 0 0-4.059 4.257l-.001.003-.001.001-.269.114-.006-.001-.011-.001-.021-.003-.043-.007-.086-.012-.173-.026-.344-.05-.688-.1-1.371-.2-2.727-.399.303-.177-3.292 8.53-.106-.332 4.591 3.078.139.093-.018.166a22.136 22.136 0 0 0 .144 5.886l.026.163-.133.098-4.437 3.299.085-.324 3.702 8.359-.287-.149 5.427-1.063.15-.03.096.12a22.182 22.182 0 0 0 4.265 4.071l.12.087-.022.146-.808 5.463-.147-.253 8.53 3.306-.256.082 3.089-4.581.069-.101.121.013c2.098.231 4.071.154 5.912-.133l.111-.017.067.09 3.289 4.441-.201-.052 8.38-3.67-.073.139-1.035-5.427-.011-.054.043-.035a23.235 23.235 0 0 0 3.226-3.108l.706-.855c.158-.199.235-.289.237-.282.003.008-.065.114-.2.31-.142.2-.359.501-.672.887a21.64 21.64 0 0 1-3.183 3.19l.032-.088 1.105 5.413.02.099-.093.042-8.347 3.743-.121.054-.08-.107-3.319-4.419.177.072a22.66 22.66 0 0 1-6.014.168l.19-.088-3.067 4.595-.096.144-.161-.063-8.544-3.271-.174-.067.027-.185.789-5.466.098.232a22.62 22.62 0 0 1-4.373-4.149l.245.089-5.424 1.076-.203.04-.084-.189-3.718-8.352-.088-.195.173-.129 4.431-3.305-.106.261a22.674 22.674 0 0 1-.155-6.031l.121.26-4.593-3.073-.185-.124.08-.208 3.288-8.532.081-.21.222.032 2.727.399 1.372.2.687.1.345.051.172.025.086.012.043.007.022.003.011.001.005.001c-.537.227-.148.062-.268.112l.001-.001.002-.002a22.689 22.689 0 0 1 4.162-4.366l-.1.274-1.069-5.422-.044-.22.205-.09 8.365-3.703.202-.09.131.177 3.301 4.434-.261-.106a22.817 22.817 0 0 1 6.034-.147l-.25.116 3.082-4.584.117-.174.196.076 8.533 3.298.188.072-.03.199-.807 5.463-.098-.232a22.685 22.685 0 0 1 4.359 4.162l-.226-.083 5.427-1.058.175-.035.071.162 3.691 8.364.064.147-.128.095-4.444 3.289.072-.177c.329 2.101.342 4.132.132 6.006l-.073-.155a7182.68 7182.68 0 0 1 4.579 3.094l.095.064-.041.106-3.34 8.51-.026.068-.071-.011-4.05-.639-1.046-.174c-.236-.042-.358-.066-.361-.074Z"/>
  <path fill="#DFDFDF" fill-rule="evenodd" d="M683.905 158.235a18.627 18.627 0 0 1-3.413 3.58l.888 4.498-6.939 3.075-2.741-3.675a18.67 18.67 0 0 1-4.947.124l-2.554 3.806-7.082-2.728.662-4.534a18.54 18.54 0 0 1-3.583-3.41l-4.502.887-3.077-6.932 3.678-2.739a18.605 18.605 0 0 1-.124-4.944l-3.81-2.551 2.73-7.078 4.538.663a18.568 18.568 0 0 1 3.413-3.58l-.888-4.499 6.939-3.075 2.741 3.677a18.67 18.67 0 0 1 4.947-.125l2.554-3.806 7.083 2.728-.663 4.534a18.604 18.604 0 0 1 3.584 3.41l4.502-.887 3.077 6.932-3.679 2.739c.258 1.616.306 3.277.124 4.944l3.809 2.551-2.729 7.076-4.538-.661Zm-7.664-7.732c1.617-4.192-.473-8.901-4.67-10.518-4.196-1.616-8.909.474-10.526 4.666a8.133 8.133 0 0 0 4.67 10.518c4.196 1.616 8.909-.472 10.526-4.666Zm-22.234-34.52a29.178 29.178 0 0 1-5.351 5.615l1.393 7.053-10.882 4.823-4.298-5.765c-2.537.405-5.144.48-7.759.196l-4.004 5.969-11.107-4.279 1.039-7.11a29.099 29.099 0 0 1-5.62-5.347l-7.059 1.391-4.826-10.871 5.769-4.296a29.102 29.102 0 0 1-.194-7.752l-5.975-4 4.281-11.1 7.117 1.04a29.098 29.098 0 0 1 5.351-5.616l-1.392-7.054 10.881-4.822 4.298 5.765a29.25 29.25 0 0 1 7.758-.195l4.005-5.968 11.107 4.278-1.04 7.11a29.088 29.088 0 0 1 5.621 5.347l7.059-1.391 4.827 10.87-5.77 4.296c.405 2.534.479 5.14.195 7.752l5.973 4.001-4.28 11.098-7.117-1.038Zm-12.018-12.124c2.536-6.575-.741-13.96-7.322-16.494-6.581-2.534-13.972.743-16.508 7.317-2.536 6.575.742 13.96 7.323 16.494 6.581 2.533 13.971-.742 16.507-7.317Z" clip-rule="evenodd"/>
  <path fill="#DFDFDF" d="M544.867 57.096c-.026-.027.263-.353.809-.918l2.349-2.359c2-1.974 4.788-4.673 7.891-7.63l.071-.067.002.399a662.424 662.424 0 0 1-7.944-7.482l-2.363-2.31c-.549-.555-.841-.874-.815-.902.025-.027.365.24.959.746l2.48 2.183a654.832 654.832 0 0 1 8.053 7.363l.214.198-.211.201-.071.068a665.405 665.405 0 0 1-8 7.514c-.975.88-1.799 1.627-2.468 2.232-.591.518-.931.792-.956.764Zm-24.131-21.269c.027.028-.263.354-.809.92l-2.349 2.357a662.81 662.81 0 0 1-7.891 7.63l-.07.067-.003-.398a643.968 643.968 0 0 1 7.944 7.481l2.363 2.311c.549.554.841.874.815.901-.024.028-.365-.239-.958-.745l-2.481-2.184a662.274 662.274 0 0 1-8.053-7.363l-.213-.198.211-.2.07-.068a658.967 658.967 0 0 1 8-7.514l2.469-2.232c.591-.518.93-.792.955-.765Zm6.194 26.279c-.141-.053 2.392-7.167 5.657-15.887 3.265-8.723 6.026-15.749 6.167-15.696.141.053-2.391 7.166-5.657 15.889-3.265 8.72-6.026 15.747-6.167 15.694Z"/>
  <path fill="#DFDFDF" d="M572.287 77.327s-.016-.413-.025-1.19l-.026-3.422-.058-12.96-.118-46.33.227.227-78.484.046h-.006l.272-.274-.029 63.903-.243-.244 56.676.122 16.065.065 4.264.029 1.103.014c.249.004.382.014.382.014s-.114.01-.354.014l-1.076.014-4.216.029-16.01.065-56.834.122h-.244v-.244l-.029-63.903v-.273h.279l78.484.046h.228v.227l-.118 46.474-.058 12.91c-.012 1.467-.021 2.596-.026 3.378a39.049 39.049 0 0 1-.026 1.141Z"/>
  <path fill="#DFDFDF" d="M572.903 22.906c0 .15-17.718.274-39.569.274-21.858 0-39.572-.123-39.572-.274 0-.151 17.714-.273 39.572-.273 21.851 0 39.569.122 39.569.273Zm-72.701-4.663c0 .585-.473 1.06-1.056 1.06a1.058 1.058 0 0 1-1.057-1.06c0-.586.473-1.06 1.057-1.06.583 0 1.056.474 1.056 1.06Zm3.852 0c0 .585-.473 1.06-1.057 1.06a1.058 1.058 0 0 1-1.056-1.06c0-.586.473-1.06 1.056-1.06.584 0 1.057.474 1.057 1.06Zm3.852 0c0 .585-.473 1.06-1.057 1.06a1.058 1.058 0 0 1-1.056-1.06c0-.586.473-1.06 1.056-1.06.584 0 1.057.474 1.057 1.06Z"/>
  <path fill="#fff" d="M420.558 117.9h-181.48V44.247h181.48V117.9Z"/>
  <path fill="#DFDFDF" d="M420.558 117.9s-.014-.452-.021-1.315l-.022-3.821-.05-14.658-.109-53.86.202.203-181.468.085h-.012l.287-.287-.012 73.653-.275-.275 130.117.13 37.747.077 10.102.034 2.615.017c.59.006.899.017.899.017s-.286.012-.865.018l-2.583.017-10.045.034-37.683.076-130.304.13h-.275v-.275l-.012-73.653v-.287h.299l181.468.085h.202v.202l-.11 53.98-.049 14.614-.022 3.785c-.007.85-.021 1.274-.021 1.274Z"/>
  <path fill="#DFDFDF" d="M239.259 54.18c0-.159 40.565-.287 90.592-.287 50.045 0 90.601.128 90.601.287 0 .158-40.556.287-90.601.287-50.027 0-90.592-.129-90.592-.287Z"/>
  <path fill="#EBEBEB" fill-opacity=".302" d="M246.857 49.737a1.317 1.317 0 1 1-2.633-.002 1.317 1.317 0 0 1 2.633.002Zm4.513 0a1.317 1.317 0 1 1-2.633-.002 1.317 1.317 0 0 1 2.633.002Zm4.449 0a1.317 1.317 0 1 1-2.634-.002 1.317 1.317 0 0 1 2.634.002Z"/>
  <path fill="#DFDFDF" d="M298.336 109.95h-43.835V66.151h43.835v43.799Zm109.666-32.062c0 .159-22.557.287-50.376.287-27.828 0-50.38-.128-50.38-.287 0-.158 22.552-.287 50.38-.287 27.819 0 50.376.129 50.376.287Zm0 8.922c0 .16-22.557.288-50.376.288-27.828 0-50.38-.129-50.38-.287 0-.159 22.552-.287 50.38-.287 27.819 0 50.376.128 50.376.287Zm-35.895 8.923c0 .02-.228.04-.66.058l-1.889.054-6.951.091-22.929.084-22.934-.084-6.95-.09-1.889-.055c-.432-.018-.659-.038-.659-.058 0-.02.227-.039.659-.058l1.889-.053 6.95-.091 22.934-.085 22.929.085 6.951.09 1.889.054c.432.02.66.038.66.058Z"/>
  <path fill="#263138" d="M704.477 649.866c0 .222-154.275.402-344.539.402-190.33 0-344.572-.18-344.572-.402 0-.222 154.242-.402 344.572-.402 190.264 0 344.539.18 344.539.402Z"/>
  <path fill="#DFDFDF" d="M646.194 347.833H429.547V171.482h216.647v176.351Z"/>
  <path fill="#EBEBEB" d="M630.789 359.042H414.143v-176.35h216.646v176.35Z"/>
  <path fill="#fff" d="M615.345 376.023H392.918V194.968h222.427v181.055Z"/>
  <path fill="#263138" d="M615.345 376.023s-.025-1.147-.037-3.338l-.038-9.667-.087-36.687-.174-131.363.336.336-222.408.067h-.019l.403-.403-.044 181.055-.359-.359 160.727.18 45.481.095 12.05.043 3.105.021c.698.006 1.064.02 1.064.02s-.338.014-1.023.021l-3.066.021-11.979.042-45.4.095-160.959.18-.359.001v-.36l-.043-181.055v-.402h.421l222.408.067h.336v.335l-.174 131.575-.087 36.611-.038 9.604a212.916 212.916 0 0 1-.037 3.265Z"/>
  <path fill="#445964" d="m420.028 221.132-2.387.874 2.387.867v.896l-3.412-1.297v-.931l3.412-1.297v.888Zm5.633-1.634v5.016h-1.162v-2.056h-2.28v2.056h-1.163v-5.016h1.163v1.978h2.28v-1.978h1.162Zm2.224.946h-1.607v-.946h4.376v.946h-1.607v4.07h-1.162v-4.07Zm7.957 4.07-.008-3.009-1.477 2.479h-.523l-1.471-2.415v2.945h-1.09v-5.016h.962l1.878 3.117 1.851-3.117h.953l.015 5.016h-1.09Zm2.272-5.016h1.163v4.07h2.517v.946h-3.68v-5.016Zm7.59 2.043v.931l-3.412 1.297v-.896l2.387-.867-2.387-.874v-.888l3.412 1.297Z"/>
  <path fill="#E8505B" d="m418.002 358.433-2.389.873 2.389.868v.896l-3.415-1.298v-.93l3.415-1.298v.889Zm2.562-2.652h.997l-2.367 6.75h-.997l2.367-6.75Zm5.878 1.018v5.016h-1.163v-2.057h-2.28v2.057h-1.162v-5.016h1.162v1.978h2.28v-1.978h1.163Zm2.223.946h-1.606v-.946h4.374v.946h-1.607v4.07h-1.161v-4.07Zm7.957 4.07-.007-3.01-1.477 2.479h-.524l-1.47-2.414v2.945h-1.091v-5.016h.962l1.878 3.117 1.852-3.117h.954l.014 5.016h-1.091Zm2.274-5.016h1.162v4.07h2.517v.946h-3.679v-5.016Zm7.59 2.043v.93l-3.412 1.298v-.896l2.387-.868-2.387-.873v-.889l3.412 1.298Z"/>
  <path fill="#000" d="m435.78 234.863-2.546.981 2.546.982v.595l-3.213-1.269v-.617l3.213-1.267v.595Zm5.547-1.527v5.016h-.717v-2.235h-2.883v2.235h-.717v-5.016h.717v2.157h2.883v-2.157h.717Zm5.143 4.393v.623h-3.643v-5.016h3.543v.623h-2.825v1.541h2.517v.609h-2.517v1.62h2.925Zm4.355-.631h-2.668l-.551 1.254h-.74l2.274-5.016h.709l2.282 5.016h-.753l-.553-1.254Zm-.251-.573-1.082-2.458-1.083 2.458h2.165Zm2.296-3.189h2.116c1.614 0 2.711 1.018 2.711 2.508 0 1.491-1.097 2.508-2.711 2.508h-2.116v-5.016Zm2.073 4.393c1.24 0 2.035-.76 2.035-1.885 0-1.124-.795-1.885-2.035-1.885h-1.355v3.77h1.355Zm6.786-2.194v.617l-3.213 1.269v-.595l2.553-.982-2.553-.981v-.595l3.213 1.267Zm-25.949 16.507-2.546.982 2.546.982v.595l-3.213-1.269v-.616l3.213-1.268v.594Zm2.227-.902h-1.721v-.623h4.152v.623h-1.721v4.393h-.71v-4.393Zm3.208-.623h.717v5.016h-.717v-5.016Zm3.217.623h-1.721v-.623h4.152v.623h-1.721v4.393h-.71v-4.393Zm3.208-.623h.718v4.392h2.717v.624h-3.435v-5.016Zm7.9 4.392v.624h-3.643v-5.016h3.542v.623h-2.825v1.541h2.517v.609h-2.517v1.619h2.926Zm4.096-2.193v.616l-3.212 1.269v-.595l2.552-.982-2.552-.982v-.594l3.212 1.268Zm3.157-2.199h.717v4.392h2.718v.624h-3.435v-5.016Zm3.755 3.117c0-1.133.838-1.936 1.978-1.936 1.141 0 1.973.803 1.973 1.936 0 1.131-.832 1.941-1.973 1.941-1.14 0-1.978-.81-1.978-1.941Zm3.255 0c0-.81-.545-1.334-1.277-1.334-.731 0-1.283.524-1.283 1.334 0 .809.552 1.339 1.283 1.339.732 0 1.277-.53 1.277-1.339Zm3.689-1.936v.667c-.058-.007-.107-.007-.158-.007-.739 0-1.198.451-1.198 1.283v1.892h-.688v-3.798h.659v.638c.245-.445.718-.675 1.385-.675Zm4.227 2.165h-3.084c.087.666.625 1.11 1.377 1.11.445 0 .818-.15 1.097-.458l.381.444c-.345.401-.868.616-1.499.616-1.226 0-2.045-.81-2.045-1.941 0-1.126.811-1.936 1.909-1.936 1.097 0 1.878.789 1.878 1.957 0 .057-.006.143-.014.208Zm-3.084-.495h2.44c-.073-.638-.553-1.089-1.22-1.089-.66 0-1.148.444-1.22 1.089Zm10.359-.021v2.186h-.689v-2.107c0-.745-.358-1.111-.983-1.111-.688 0-1.14.437-1.14 1.261v1.957h-.688v-2.107c0-.745-.358-1.111-.983-1.111-.688 0-1.14.437-1.14 1.261v1.957h-.688v-3.798h.659v.565c.274-.386.74-.602 1.314-.602.58 0 1.067.23 1.319.703.287-.429.817-.703 1.462-.703.925 0 1.557.532 1.557 1.649Zm3.066-2.788c0-.25.202-.451.466-.451.266 0 .467.193.467.437a.45.45 0 0 1-.467.459c-.264 0-.466-.194-.466-.445Zm.122 1.176h.689v3.797h-.689v-3.797Zm5.937 1.899c0 1.168-.811 1.941-1.922 1.941-.538 0-1.011-.208-1.327-.616v1.963h-.688v-5.187h.659v.601c.308-.422.797-.638 1.356-.638 1.111 0 1.922.774 1.922 1.936Zm-.696 0c0-.803-.553-1.334-1.283-1.334-.725 0-1.278.531-1.278 1.334 0 .809.553 1.339 1.278 1.339.73 0 1.283-.53 1.283-1.339Zm1.164 1.497.287-.544c.323.229.839.394 1.333.394.638 0 .904-.194.904-.516 0-.853-2.402-.114-2.402-1.627 0-.681.61-1.14 1.585-1.14.494 0 1.054.13 1.383.344l-.293.545a1.987 1.987 0 0 0-1.097-.3c-.603 0-.897.221-.897.522 0 .896 2.409.166 2.409 1.641 0 .688-.631 1.125-1.642 1.125-.631 0-1.255-.193-1.57-.444Zm7.614-3.396v3.798h-.652v-.574c-.281.395-.754.616-1.293.616-.981 0-1.634-.536-1.634-1.654v-2.186h.689v2.106c0 .746.372 1.118 1.025 1.118.717 0 1.176-.444 1.176-1.261v-1.963h.689Zm7.617 1.612v2.186h-.689v-2.107c0-.745-.358-1.111-.983-1.111-.688 0-1.139.437-1.139 1.261v1.957h-.689v-2.107c0-.745-.358-1.111-.983-1.111-.688 0-1.14.437-1.14 1.261v1.957h-.688v-3.798h.66v.565c.273-.386.739-.602 1.313-.602.58 0 1.067.23 1.32.703.286-.429.816-.703 1.461-.703.925 0 1.557.532 1.557 1.649Zm6.229-1.305-2.545.982 2.545.982v.595l-3.213-1.269v-.616l3.213-1.268v.594Zm2.644-2.543h.624l-2.368 6.75h-.624l2.368-6.75Zm2.319 1.641h-1.721v-.623h4.152v.623h-1.721v4.393h-.71v-4.393Zm3.21-.623h.717v5.016h-.717v-5.016Zm3.217.623h-1.721v-.623h4.152v.623h-1.721v4.393h-.71v-4.393Zm3.208-.623h.718v4.392h2.717v.624h-3.435v-5.016Zm7.9 4.392v.624h-3.643v-5.016h3.542v.623h-2.825v1.541h2.516v.609h-2.516v1.619h2.926Zm4.096-2.193v.616l-3.213 1.269v-.595l2.553-.982-2.553-.982v-.594l3.213 1.268ZM435.78 269.222l-2.546.982 2.546.982v.594l-3.213-1.268v-.616l3.213-1.268v.594Zm2.643-2.544h.624l-2.368 6.751h-.623l2.367-6.751Zm5.425 1.018v5.016h-.717v-2.236h-2.882v2.236h-.717v-5.016h.717v2.156h2.882v-2.156h.717Zm5.144 4.392v.624h-3.643v-5.016h3.542v.624h-2.825v1.54h2.517v.609h-2.517v1.619h2.926Zm4.354-.63h-2.668l-.551 1.254h-.74l2.274-5.016h.71l2.281 5.016h-.753l-.553-1.254Zm-.25-.574-1.083-2.457-1.083 2.457h2.166Zm2.298-3.188h2.115c1.614 0 2.71 1.017 2.71 2.508s-1.096 2.508-2.71 2.508h-2.115v-5.016Zm2.071 4.392c1.242 0 2.039-.759 2.039-1.884s-.797-1.884-2.039-1.884h-1.354v3.768h1.354Zm6.785-2.192v.616l-3.213 1.268v-.594l2.553-.982-2.553-.982v-.594l3.213 1.268Zm-41.788 14.237-2.546.981 2.546.981v.595l-3.213-1.268v-.617l3.213-1.267v.595Zm5.547 2.134c0 .86-.652 1.355-1.923 1.355h-2.394v-5.016h2.251c1.155 0 1.8.487 1.8 1.297 0 .545-.28.924-.673 1.118.566.157.939.58.939 1.246Zm-3.6-3.08v1.605h1.471c.731 0 1.147-.273 1.147-.803 0-.531-.416-.802-1.147-.802h-1.471Zm2.875 3.023c0-.58-.429-.838-1.226-.838h-1.649v1.669h1.649c.797 0 1.226-.25 1.226-.831Zm1.423-1.096c0-1.469 1.132-2.566 2.675-2.566 1.528 0 2.66 1.089 2.66 2.566 0 1.476-1.132 2.565-2.66 2.565-1.543 0-2.675-1.097-2.675-2.565Zm4.618 0c0-1.111-.832-1.927-1.943-1.927-1.127 0-1.958.816-1.958 1.927 0 1.111.831 1.927 1.958 1.927 1.111 0 1.943-.816 1.943-1.927Zm1.808-2.508h2.116c1.614 0 2.711 1.017 2.711 2.508s-1.097 2.508-2.711 2.508h-2.116v-5.016Zm2.073 4.393c1.24 0 2.035-.761 2.035-1.885 0-1.125-.795-1.885-2.035-1.885h-1.355v3.77h1.355Zm5.552-1.111v1.734h-.711v-1.749l-1.993-3.267h.767l1.607 2.644 1.613-2.644h.71l-1.993 3.282Zm5.653-1.083v.617l-3.213 1.268v-.595l2.553-.981-2.553-.981v-.595l3.213 1.267Zm-25.949 16.507-2.546.982 2.546.982v.594l-3.213-1.268v-.616l3.213-1.268v.594Zm5.547-1.526v5.016h-.718v-2.235h-2.882v2.235h-.717v-5.016h.717v2.157h2.882v-2.157h.718Zm2.648 0v5.016h-.71v-4.392h-1.133v-.624h1.843Zm4.442 2.2v.616l-3.213 1.268v-.594l2.553-.982-2.553-.982v-.594l3.213 1.268Zm3.222-2.2h.53v4.557h2.811v.459h-3.341v-5.016Zm3.674 3.131c0-1.118.817-1.913 1.921-1.913 1.105 0 1.916.795 1.916 1.913 0 1.118-.811 1.921-1.916 1.921-1.104 0-1.921-.803-1.921-1.921Zm3.321 0c0-.881-.597-1.469-1.4-1.469-.803 0-1.404.588-1.404 1.469 0 .882.601 1.47 1.404 1.47.803 0 1.4-.588 1.4-1.47Zm3.451-1.913v.495c-.044 0-.086-.008-.122-.008-.788 0-1.269.502-1.269 1.391v1.92h-.51v-3.769h.488v.738c.237-.501.717-.767 1.413-.767Zm4.166 2.072h-3.156c.057.787.66 1.311 1.484 1.311.459 0 .868-.165 1.155-.495l.287.33c-.338.401-.861.616-1.455.616-1.178 0-1.981-.803-1.981-1.921 0-1.118.782-1.913 1.843-1.913 1.062 0 1.828.782 1.828 1.913 0 .044-.005.101-.005.159Zm-3.156-.38h2.675c-.064-.738-.603-1.254-1.342-1.254-.73 0-1.27.516-1.333 1.254Zm10.422-.079v2.185h-.508v-2.135c0-.795-.402-1.204-1.083-1.204-.775 0-1.262.501-1.262 1.361v1.978h-.509v-2.135c0-.795-.402-1.204-1.09-1.204-.768 0-1.262.501-1.262 1.361v1.978h-.511v-3.769h.488v.688c.266-.451.753-.717 1.384-.717.624 0 1.112.266 1.341.795.273-.487.811-.795 1.492-.795.918 0 1.52.531 1.52 1.613Zm3.138-2.773c0-.194.164-.359.373-.359a.362.362 0 1 1 0 .724.368.368 0 0 1-.373-.365Zm.114 1.189h.509v3.769h-.509v-3.769Zm5.752 1.884c0 1.147-.804 1.921-1.879 1.921-.604 0-1.12-.258-1.434-.746v2.1h-.51v-5.159h.487v.745c.31-.502.832-.774 1.457-.774 1.075 0 1.879.774 1.879 1.913Zm-.509 0c0-.873-.61-1.469-1.406-1.469-.803 0-1.406.596-1.406 1.469 0 .882.603 1.47 1.406 1.47.796 0 1.406-.588 1.406-1.47Zm1.018 1.455.23-.401c.302.236.811.423 1.342.423.717 0 1.01-.244 1.01-.617 0-.981-2.444-.207-2.444-1.698 0-.616.53-1.075 1.492-1.075.487 0 1.017.136 1.333.352l-.222.408a1.94 1.94 0 0 0-1.111-.322c-.681 0-.983.264-.983.623 0 1.017 2.446.25 2.446 1.699 0 .651-.574 1.074-1.557 1.074-.624 0-1.226-.201-1.536-.466Zm7.428-3.339v3.769h-.488v-.688c-.266.459-.753.724-1.356.724-.96 0-1.591-.538-1.591-1.619v-2.186h.509v2.136c0 .802.415 1.21 1.132 1.21.79 0 1.285-.509 1.285-1.368v-1.978h.509Zm7.647 1.584v2.185h-.509v-2.135c0-.795-.402-1.204-1.083-1.204-.774 0-1.262.501-1.262 1.361v1.978h-.51v-2.135c0-.795-.402-1.204-1.09-1.204-.767 0-1.262.501-1.262 1.361v1.978h-.509v-3.769h.488v.688c.265-.451.753-.717 1.384-.717.624 0 1.111.266 1.341.795.273-.487.81-.795 1.491-.795.918 0 1.521.531 1.521 1.613Zm6.694-3.132v5.317h-.487v-.745c-.308.509-.832.781-1.456.781-1.076 0-1.879-.781-1.879-1.921 0-1.139.803-1.913 1.879-1.913.602 0 1.119.258 1.435.746v-2.265h.508Zm-.501 3.432c0-.881-.603-1.468-1.398-1.468-.803 0-1.407.587-1.407 1.468 0 .882.604 1.47 1.407 1.47.795 0 1.398-.588 1.398-1.47Zm1.537 0c0-1.118.818-1.913 1.923-1.913 1.104 0 1.914.795 1.914 1.913 0 1.118-.81 1.921-1.914 1.921-1.105 0-1.923-.803-1.923-1.921Zm3.321 0c0-.881-.594-1.469-1.398-1.469-.803 0-1.407.588-1.407 1.469 0 .882.604 1.47 1.407 1.47.804 0 1.398-.588 1.398-1.47Zm1.551-3.432h.509v5.317h-.509v-5.317Zm1.547 3.432c0-1.118.817-1.913 1.921-1.913 1.106 0 1.916.795 1.916 1.913 0 1.118-.81 1.921-1.916 1.921-1.104 0-1.921-.803-1.921-1.921Zm3.321 0c0-.881-.596-1.469-1.4-1.469-.803 0-1.404.588-1.404 1.469 0 .882.601 1.47 1.404 1.47.804 0 1.4-.588 1.4-1.47Zm3.451-1.913v.495c-.043 0-.086-.008-.122-.008-.788 0-1.268.502-1.268 1.391v1.92h-.511v-3.769h.488v.738c.237-.501.717-.767 1.413-.767Zm2.327 3.368.229-.401c.301.236.81.423 1.341.423.717 0 1.012-.244 1.012-.617 0-.981-2.446-.207-2.446-1.698 0-.616.53-1.075 1.491-1.075.488 0 1.018.136 1.334.352l-.222.408c-.329-.229-.725-.322-1.112-.322-.682 0-.982.264-.982.623 0 1.017 2.446.25 2.446 1.699 0 .651-.574 1.074-1.557 1.074-.624 0-1.226-.201-1.534-.466Zm3.912-4.528c0-.194.164-.359.373-.359a.362.362 0 1 1 0 .724.368.368 0 0 1-.373-.365Zm.115 1.189h.509v3.769h-.509v-3.769Zm3.913 3.54c-.201.179-.503.265-.796.265-.709 0-1.105-.402-1.105-1.096v-2.279h-.673v-.43h.673v-.824h.51v.824h1.148v.43h-1.148v2.25c0 .444.23.688.653.688a.834.834 0 0 0 .558-.194l.18.366Zm5.646-2.107v2.336h-.487v-.587c-.23.386-.673.623-1.299.623-.853 0-1.376-.444-1.376-1.096 0-.58.373-1.068 1.455-1.068h1.199v-.229c0-.646-.365-.997-1.069-.997-.488 0-.947.173-1.255.445l-.23-.381c.38-.321.94-.508 1.535-.508.975 0 1.527.487 1.527 1.462Zm-.508 1.204v-.616h-1.184c-.731 0-.968.286-.968.673 0 .438.352.709.953.709.574 0 .998-.271 1.199-.766Zm8.112-1.053v2.185h-.508v-2.135c0-.795-.402-1.204-1.083-1.204-.775 0-1.262.501-1.262 1.361v1.978h-.509v-2.135c0-.795-.402-1.204-1.09-1.204-.769 0-1.262.501-1.262 1.361v1.978H523v-3.769h.488v.688c.266-.451.753-.717 1.384-.717.624 0 1.112.266 1.341.795.273-.487.811-.795 1.492-.795.918 0 1.52.531 1.52 1.613Zm4.676.459h-3.155c.057.787.659 1.311 1.483 1.311.46 0 .869-.165 1.156-.495l.286.33c-.338.401-.86.616-1.455.616-1.178 0-1.981-.803-1.981-1.921 0-1.118.782-1.913 1.844-1.913 1.061 0 1.828.782 1.828 1.913 0 .044-.006.101-.006.159Zm-3.155-.38h2.675c-.065-.738-.604-1.254-1.342-1.254-.731 0-1.27.516-1.333 1.254Zm6.184 1.877c-.201.179-.502.265-.796.265-.711 0-1.105-.402-1.105-1.096v-2.279h-.674v-.43h.674v-.824h.509v.824h1.147v.43h-1.147v2.25c0 .444.229.688.653.688a.838.838 0 0 0 .559-.194l.18.366Zm1.431-.129c0 .122-.029.215-.1.415l-.302.989h-.344l.244-1.039c-.15-.042-.259-.179-.259-.365 0-.222.166-.387.38-.387.224 0 .381.172.381.387Zm2.579-1.527c0-1.124.818-1.913 1.944-1.913.637 0 1.176.25 1.477.746l-.381.257c-.256-.379-.658-.559-1.096-.559-.824 0-1.428.588-1.428 1.469 0 .889.604 1.47 1.428 1.47.438 0 .84-.172 1.096-.552l.381.257c-.301.488-.84.746-1.477.746-1.126 0-1.944-.795-1.944-1.921Zm3.968 0c0-1.118.818-1.913 1.923-1.913 1.104 0 1.914.795 1.914 1.913 0 1.118-.81 1.921-1.914 1.921-1.105 0-1.923-.803-1.923-1.921Zm3.321 0c0-.881-.595-1.469-1.398-1.469-.803 0-1.407.588-1.407 1.469 0 .882.604 1.47 1.407 1.47s1.398-.588 1.398-1.47Zm5.023-.3v2.185h-.509v-2.135c0-.795-.416-1.204-1.132-1.204-.811 0-1.32.501-1.32 1.361v1.978h-.51v-3.769h.488v.695c.273-.458.782-.724 1.434-.724.918 0 1.549.531 1.549 1.613Zm.856 1.755.23-.401c.3.236.809.423 1.34.423.718 0 1.012-.244 1.012-.617 0-.981-2.446-.207-2.446-1.698 0-.616.53-1.075 1.492-1.075.488 0 1.017.136 1.333.352l-.222.408c-.329-.229-.725-.322-1.111-.322-.683 0-.983.264-.983.623 0 1.017 2.446.25 2.446 1.699 0 .651-.574 1.074-1.557 1.074-.623 0-1.226-.201-1.534-.466Zm7.311-1.296h-3.156c.058.787.66 1.311 1.484 1.311.459 0 .869-.165 1.155-.495l.287.33c-.338.401-.86.616-1.455.616-1.178 0-1.981-.803-1.981-1.921 0-1.118.782-1.913 1.843-1.913 1.062 0 1.829.782 1.829 1.913 0 .044-.006.101-.006.159Zm-3.156-.38h2.676c-.065-.738-.604-1.254-1.343-1.254-.73 0-1.269.516-1.333 1.254Zm3.817.221c0-1.124.818-1.913 1.945-1.913.637 0 1.176.25 1.476.746l-.38.257c-.257-.379-.658-.559-1.096-.559-.825 0-1.429.588-1.429 1.469 0 .889.604 1.47 1.429 1.47.438 0 .839-.172 1.096-.552l.38.257c-.3.488-.839.746-1.476.746-1.127 0-1.945-.795-1.945-1.921Zm6.444 1.656c-.201.179-.501.265-.795.265-.712 0-1.106-.402-1.106-1.096v-2.279h-.673v-.43h.673v-.824h.509v.824h1.147v.43h-1.147v2.25c0 .444.229.688.654.688a.837.837 0 0 0 .558-.194l.18.366Zm4.072-1.497h-3.156c.058.787.66 1.311 1.485 1.311.459 0 .868-.165 1.155-.495l.287.33c-.337.401-.861.616-1.458.616-1.174 0-1.977-.803-1.977-1.921 0-1.118.78-1.913 1.842-1.913 1.061 0 1.83.782 1.83 1.913 0 .044-.008.101-.008.159Zm-3.156-.38h2.675c-.064-.738-.602-1.254-1.341-1.254-.731 0-1.269.516-1.334 1.254Zm6.184 1.877c-.2.179-.502.265-.795.265-.71 0-1.105-.402-1.105-1.096v-2.279h-.674v-.43h.674v-.824h.51v.824h1.147v.43h-1.147v2.25c0 .444.229.688.652.688a.838.838 0 0 0 .559-.194l.179.366Zm4.322-3.54v3.769h-.488v-.688c-.266.459-.753.724-1.356.724-.96 0-1.591-.538-1.591-1.619v-2.186h.508v2.136c0 .802.416 1.21 1.133 1.21.79 0 1.285-.509 1.285-1.368v-1.978h.509Zm4.705 2.043h-3.155c.057.787.66 1.311 1.484 1.311.459 0 .869-.165 1.155-.495l.287.33c-.338.401-.861.616-1.455.616-1.178 0-1.981-.803-1.981-1.921 0-1.118.782-1.913 1.843-1.913 1.062 0 1.829.782 1.829 1.913 0 .044-.007.101-.007.159Zm-3.155-.38h2.676c-.065-.738-.604-1.254-1.343-1.254-.73 0-1.269.516-1.333 1.254Zm6.1-1.692v.495c-.042 0-.086-.008-.123-.008-.788 0-1.269.502-1.269 1.391v1.92h-.509v-3.769h.488v.738c.237-.501.717-.767 1.413-.767Zm-165.27 10.052v2.336h-.488v-.588c-.229.387-.675.623-1.298.623-.853 0-1.377-.443-1.377-1.096 0-.579.373-1.067 1.457-1.067h1.197v-.229c0-.646-.367-.996-1.069-.996-.487 0-.947.171-1.254.444l-.23-.381c.38-.322.939-.508 1.534-.508.975 0 1.528.487 1.528 1.462Zm-.509 1.204v-.617h-1.184c-.732 0-.968.287-.968.674 0 .438.351.709.955.709.574 0 .996-.271 1.197-.766Zm5.344-4.185v5.317h-.487v-.745c-.308.509-.832.78-1.456.78-1.075 0-1.878-.78-1.878-1.92 0-1.139.803-1.913 1.878-1.913.603 0 1.119.258 1.435.745v-2.264h.508Zm-.501 3.432c0-.881-.602-1.468-1.399-1.468-.804 0-1.404.587-1.404 1.468 0 .882.6 1.469 1.404 1.469.797 0 1.399-.587 1.399-1.469Zm1.802-3.074c0-.194.166-.358.373-.358a.362.362 0 1 1 0 .724.37.37 0 0 1-.373-.366Zm.115 1.19h.51v3.769h-.51v-3.769Zm5.75 1.884c0 1.146-.803 1.92-1.88 1.92-.6 0-1.117-.258-1.434-.745v2.1h-.509v-5.159h.488v.745c.308-.502.832-.774 1.455-.774 1.077 0 1.88.774 1.88 1.913Zm-.508 0c0-.873-.61-1.468-1.406-1.468-.804 0-1.406.595-1.406 1.468 0 .882.602 1.469 1.406 1.469.796 0 1.406-.587 1.406-1.469Zm1.428-3.074c0-.194.166-.358.372-.358.209 0 .374.158.374.351a.366.366 0 0 1-.374.373.37.37 0 0 1-.372-.366Zm.114 1.19h.511v3.769h-.511v-3.769Zm1.405 3.339.229-.401c.301.236.81.423 1.341.423.717 0 1.012-.245 1.012-.617 0-.981-2.447-.208-2.447-1.698 0-.616.531-1.075 1.492-1.075.488 0 1.018.136 1.333.352l-.221.408c-.33-.23-.725-.322-1.112-.322-.682 0-.983.264-.983.623 0 1.017 2.447.25 2.447 1.698 0 .652-.575 1.074-1.558 1.074-.623 0-1.225-.2-1.533-.465Zm3.647-1.455c0-1.125.817-1.913 1.944-1.913.638 0 1.176.251 1.476.745l-.379.258c-.259-.38-.661-.558-1.097-.558-.826 0-1.427.587-1.427 1.468 0 .889.601 1.469 1.427 1.469.436 0 .838-.172 1.097-.552l.379.258c-.3.487-.838.745-1.476.745-1.127 0-1.944-.795-1.944-1.92Zm4.297-3.074c0-.194.166-.358.373-.358a.362.362 0 1 1 0 .724.37.37 0 0 1-.373-.366Zm.115 1.19h.51v3.769h-.51v-3.769Zm5.399 1.584v2.185h-.509v-2.136c0-.794-.415-1.203-1.134-1.203-.809 0-1.319.501-1.319 1.361v1.978h-.509v-3.769h.487v.695c.274-.459.783-.724 1.435-.724.918 0 1.549.53 1.549 1.613Zm4.886-1.584v3.31c0 1.297-.639 1.885-1.888 1.885-.688 0-1.362-.208-1.757-.581l.26-.387c.358.323.903.516 1.484.516.953 0 1.39-.436 1.39-1.369v-.479c-.315.479-.853.731-1.47.731-1.075 0-1.894-.753-1.894-1.835 0-1.082.819-1.82 1.894-1.82.631 0 1.178.258 1.491.753v-.724h.49Zm-.496 1.791c0-.817-.602-1.375-1.434-1.375s-1.428.558-1.428 1.375.596 1.383 1.428 1.383 1.434-.566 1.434-1.383Zm7.08.251h-3.156c.058.788.66 1.311 1.485 1.311.459 0 .868-.164 1.155-.494l.287.33c-.337.401-.861.615-1.457.615-1.175 0-1.978-.802-1.978-1.92 0-1.118.78-1.913 1.842-1.913 1.061 0 1.83.781 1.83 1.913 0 .044-.008.101-.008.158Zm-3.156-.38h2.675c-.064-.738-.602-1.253-1.341-1.253-.731 0-1.269.515-1.334 1.253Zm4.198-3.21h.508v5.317h-.508v-5.317Zm1.812.358c0-.194.164-.358.373-.358a.36.36 0 0 1 .372.351.365.365 0 0 1-.372.373.368.368 0 0 1-.373-.366Zm.114 1.19h.509v3.769h-.509v-3.769Zm3.915 3.539c-.2.18-.501.265-.795.265-.711 0-1.105-.401-1.105-1.096v-2.278h-.674v-.43h.674v-.824h.508v.824h1.148v.43h-1.148v2.25c0 .444.23.688.654.688a.845.845 0 0 0 .559-.194l.179.365Zm1.43-.128c0 .122-.028.215-.101.415l-.3.989h-.345l.243-1.039c-.149-.043-.256-.179-.256-.365 0-.222.164-.387.379-.387.221 0 .38.172.38.387Zm2.435-.072.23-.401c.302.236.811.423 1.342.423.717 0 1.01-.245 1.01-.617 0-.981-2.444-.208-2.444-1.698 0-.616.53-1.075 1.491-1.075.488 0 1.018.136 1.334.352l-.222.408c-.331-.23-.725-.322-1.112-.322-.68 0-.982.264-.982.623 0 1.017 2.445.25 2.445 1.698 0 .652-.573 1.074-1.556 1.074-.624 0-1.226-.2-1.536-.465Zm7.313-1.297h-3.156c.057.788.66 1.311 1.484 1.311.459 0 .868-.164 1.155-.494l.287.33c-.337.401-.861.615-1.457.615-1.175 0-1.978-.802-1.978-1.92 0-1.118.781-1.913 1.842-1.913s1.83.781 1.83 1.913c0 .044-.007.101-.007.158Zm-3.156-.38h2.674c-.064-.738-.601-1.253-1.341-1.253-.731 0-1.268.515-1.333 1.253Zm7.64-3.21v5.317h-.488v-.745c-.308.509-.832.78-1.455.78-1.075 0-1.879-.78-1.879-1.92 0-1.139.804-1.913 1.879-1.913.602 0 1.118.258 1.434.745v-2.264h.509Zm-.502 3.432c0-.881-.602-1.468-1.399-1.468-.804 0-1.405.587-1.405 1.468 0 .882.601 1.469 1.405 1.469.797 0 1.399-.587 1.399-1.469Zm7.236-3.432v5.317h-.488v-.745c-.308.509-.832.78-1.456.78-1.075 0-1.878-.78-1.878-1.92 0-1.139.803-1.913 1.878-1.913.603 0 1.119.258 1.435.745v-2.264h.509Zm-.502 3.432c0-.881-.602-1.468-1.4-1.468-.802 0-1.404.587-1.404 1.468 0 .882.602 1.469 1.404 1.469.798 0 1.4-.587 1.4-1.469Zm1.801-3.074c0-.194.166-.358.373-.358a.362.362 0 1 1 0 .724.37.37 0 0 1-.373-.366Zm.115 1.19h.51v3.769h-.51v-3.769Zm4.776 1.433v2.336h-.488v-.588c-.23.387-.673.623-1.298.623-.854 0-1.377-.443-1.377-1.096 0-.579.373-1.067 1.455-1.067h1.199v-.229c0-.646-.365-.996-1.069-.996-.488 0-.947.171-1.255.444l-.229-.381c.379-.322.939-.508 1.534-.508.975 0 1.528.487 1.528 1.462Zm-.509 1.204v-.617h-1.184c-.731 0-.968.287-.968.674 0 .438.352.709.953.709.574 0 .998-.271 1.199-.766Zm8.113-1.053v2.185h-.509v-2.136c0-.794-.401-1.203-1.082-1.203-.774 0-1.262.501-1.262 1.361v1.978h-.51v-2.136c0-.794-.402-1.203-1.09-1.203-.768 0-1.262.501-1.262 1.361v1.978h-.509v-3.769h.487v.687c.266-.451.753-.716 1.385-.716.623 0 1.111.265 1.341.795.273-.487.81-.795 1.491-.795.918 0 1.52.53 1.52 1.613Zm4.36-1.305-2.546.982 2.546.982v.594l-3.214-1.268v-.616l3.214-1.269v.595Zm2.643-2.544h.624l-2.368 6.75h-.623l2.367-6.75Zm5.425 1.018v5.016h-.717v-2.236h-2.883v2.236h-.717v-5.016h.717v2.157h2.883v-2.157h.717Zm2.648 0v5.016h-.711V309H518v-.624h1.843Zm4.443 2.2v.616l-3.213 1.268v-.594l2.553-.982-2.553-.982v-.595l3.213 1.269Zm-101.824 16.507-2.546.981 2.546.982v.595l-3.213-1.269v-.616l3.213-1.268v.595Zm5.281.221c0 1.09-.788 1.749-2.093 1.749h-1.241v1.519h-.717v-5.016h1.958c1.305 0 2.093.659 2.093 1.748Zm-.716 0c0-.716-.481-1.125-1.399-1.125h-1.219v2.251h1.219c.918 0 1.399-.409 1.399-1.126Zm4.777.452v.616l-3.212 1.269v-.595l2.552-.982-2.552-.981v-.595l3.212 1.268Zm6.097-.673-2.545.981 2.545.982v.595l-3.213-1.269v-.616l3.213-1.268v.595Zm1.229-1.527h.717v5.016h-.717v-5.016Zm6.875 5.016-.007-3.654-1.815 3.045h-.33l-1.814-3.023v3.632h-.688v-5.016h.587l2.094 3.526 2.066-3.526h.589l.007 5.016h-.689Zm5.665-2.536h.689v1.955c-.501.423-1.198.638-1.899.638-1.544 0-2.676-1.081-2.676-2.565 0-1.483 1.132-2.565 2.689-2.565.796 0 1.471.265 1.93.774l-.446.444a1.988 1.988 0 0 0-1.455-.58c-1.161 0-2.001.809-2.001 1.927 0 1.104.84 1.927 1.995 1.927.423 0 .817-.092 1.174-.321v-1.634Zm3.521 1.963.266-.559c.371.337 1.01.58 1.656.58.868 0 1.24-.336 1.24-.774 0-1.225-3.041-.451-3.041-2.314 0-.774.604-1.433 1.924-1.433.587 0 1.197.158 1.612.444l-.236.573a2.589 2.589 0 0 0-1.376-.408c-.855 0-1.221.358-1.221.795 0 1.225 3.041.459 3.041 2.301 0 .766-.616 1.425-1.943 1.425-.768 0-1.52-.258-1.922-.63Zm8.265.573-1.084-1.54a4.52 4.52 0 0 1-.314.013h-1.241v1.527h-.718v-5.016h1.959c1.304 0 2.092.659 2.092 1.748 0 .775-.401 1.333-1.103 1.585l1.191 1.683h-.782Zm-.021-3.268c0-.716-.482-1.125-1.4-1.125h-1.218v2.258h1.218c.918 0 1.4-.416 1.4-1.133Zm1.464.76c0-1.483 1.133-2.565 2.66-2.565.775 0 1.45.265 1.909.781l-.466.451c-.389-.408-.861-.594-1.414-.594-1.132 0-1.971.816-1.971 1.927 0 1.111.839 1.927 1.971 1.927a1.87 1.87 0 0 0 1.414-.602l.466.452c-.459.516-1.134.788-1.914.788-1.522 0-2.655-1.081-2.655-2.565Zm5.315-1.132h3.213v.566h-3.213v-.566Zm0 1.699h3.213v.565h-3.213v-.565Zm6.068-3.075h.602l-.049 1.935h-.509l-.044-1.935Zm1.298 0h.603l-.05 1.935h-.509l-.044-1.935Zm1.806 0h.717v4.393h2.718v.623h-3.435v-5.016Zm3.752 3.117c0-1.132.84-1.934 1.981-1.934 1.14 0 1.972.802 1.972 1.934 0 1.133-.832 1.942-1.972 1.942-1.141 0-1.981-.809-1.981-1.942Zm3.257 0c0-.809-.546-1.332-1.276-1.332-.733 0-1.285.523-1.285 1.332 0 .81.552 1.34 1.285 1.34.73 0 1.276-.53 1.276-1.34Zm3.688-1.934v.666c-.057-.007-.107-.007-.157-.007-.74 0-1.199.451-1.199 1.282v1.893h-.688v-3.798h.66v.637c.245-.444.717-.673 1.384-.673Zm4.229 2.163h-3.084c.087.667.625 1.111 1.377 1.111.445 0 .818-.15 1.097-.458l.381.444c-.345.401-.868.616-1.499.616-1.227 0-2.045-.809-2.045-1.942 0-1.125.811-1.934 1.909-1.934 1.097 0 1.878.788 1.878 1.956 0 .057-.006.143-.014.207Zm-3.084-.494h2.44c-.073-.637-.553-1.089-1.22-1.089-.66 0-1.148.444-1.22 1.089Zm10.358-.022v2.187h-.688v-2.108c0-.744-.358-1.111-.983-1.111-.689 0-1.14.438-1.14 1.262v1.957h-.689v-2.108c0-.744-.358-1.111-.983-1.111-.688 0-1.139.438-1.139 1.262v1.957h-.689v-3.798h.66v.566c.273-.388.74-.602 1.313-.602.58 0 1.068.229 1.32.701.287-.429.817-.701 1.462-.701.925 0 1.556.53 1.556 1.647Zm3.067-2.787c0-.251.202-.451.466-.451.266 0 .467.193.467.437a.45.45 0 0 1-.467.458c-.264 0-.466-.193-.466-.444Zm.122 1.176h.689v3.798h-.689v-3.798Zm5.937 1.898c0 1.168-.811 1.942-1.922 1.942-.538 0-1.012-.207-1.327-.616v1.963h-.689v-5.187h.66v.601c.308-.423.797-.637 1.356-.637 1.111 0 1.922.774 1.922 1.934Zm-.696 0c0-.803-.553-1.332-1.284-1.332-.724 0-1.277.529-1.277 1.332 0 .81.553 1.34 1.277 1.34.731 0 1.284-.53 1.284-1.34Zm1.164 1.498.286-.544c.324.229.84.393 1.333.393.639 0 .905-.193.905-.516 0-.852-2.402-.115-2.402-1.626 0-.68.61-1.139 1.585-1.139.494 0 1.054.128 1.383.344l-.293.545a1.979 1.979 0 0 0-1.097-.302c-.603 0-.897.222-.897.523 0 .896 2.41.165 2.41 1.641 0 .688-.632 1.125-1.643 1.125-.631 0-1.255-.194-1.57-.444Zm7.612-3.396v3.797h-.654v-.573c-.279.393-.752.616-1.289.616-.983 0-1.637-.538-1.637-1.655v-2.185h.689v2.106c0 .746.374 1.118 1.026 1.118.718 0 1.177-.444 1.177-1.261v-1.963h.688Zm7.619 1.611v2.187h-.689v-2.108c0-.744-.358-1.111-.983-1.111-.688 0-1.14.438-1.14 1.262v1.957h-.688v-2.108c0-.744-.358-1.111-.983-1.111-.689 0-1.14.438-1.14 1.262v1.957h-.689v-3.798h.66v.566c.273-.388.74-.602 1.314-.602.58 0 1.067.229 1.319.701.287-.429.817-.701 1.462-.701.926 0 1.557.53 1.557 1.647Zm1.059-2.83h.603l-.05 1.935h-.509l-.044-1.935Zm1.299 0h.603l-.05 1.935h-.509l-.044-1.935Zm4.744 2.2v.616l-3.213 1.269v-.595l2.553-.982-2.553-.981v-.595l3.213 1.268Zm4.17-.673-2.545.981 2.545.982v.595l-3.213-1.269v-.616l3.213-1.268v.595Zm2.643-2.544h.624l-2.367 6.75h-.624l2.367-6.75Zm5.161 2.765c0 1.09-.79 1.749-2.096 1.749h-1.239v1.519h-.717v-5.016h1.956c1.306 0 2.096.659 2.096 1.748Zm-.719 0c0-.716-.48-1.125-1.398-1.125h-1.218v2.251h1.218c.918 0 1.398-.409 1.398-1.126Zm4.779.452v.616l-3.213 1.269v-.595l2.553-.982-2.553-.981v-.595l3.213 1.268Zm-127.085 16.507-2.546.981 2.546.983v.594l-3.213-1.269v-.615l3.213-1.269v.595Zm2.642-2.544h.625l-2.367 6.75h-.624l2.366-6.75Zm5.426 4.68c0 .86-.652 1.354-1.922 1.354h-2.394v-5.016h2.251c1.155 0 1.799.487 1.799 1.296 0 .545-.279.925-.673 1.118.566.159.939.581.939 1.248Zm-3.599-3.082v1.605h1.47c.731 0 1.148-.272 1.148-.803 0-.529-.417-.802-1.148-.802h-1.47Zm2.875 3.024c0-.58-.43-.838-1.227-.838h-1.648v1.669h1.648c.797 0 1.227-.251 1.227-.831Zm1.422-1.097c0-1.469 1.132-2.565 2.675-2.565 1.528 0 2.661 1.089 2.661 2.565 0 1.477-1.133 2.566-2.661 2.566-1.543 0-2.675-1.096-2.675-2.566Zm4.618 0c0-1.11-.832-1.927-1.943-1.927-1.126 0-1.958.817-1.958 1.927 0 1.111.832 1.928 1.958 1.928 1.111 0 1.943-.817 1.943-1.928Zm1.809-2.507h2.115c1.614 0 2.712 1.017 2.712 2.507 0 1.491-1.098 2.509-2.712 2.509h-2.115v-5.016Zm2.073 4.392c1.239 0 2.035-.759 2.035-1.885 0-1.125-.796-1.883-2.035-1.883h-1.356v3.768h1.356Zm5.551-1.11v1.734h-.71v-1.749l-1.994-3.267h.767l1.607 2.644 1.614-2.644h.709l-1.993 3.282Zm5.653-1.082v.615l-3.212 1.269v-.594l2.552-.983-2.552-.981v-.595l3.212 1.269Z"/>
  <path fill="#263138" d="M615.345 210.031c0 .223-49.618.403-110.81.403-61.214 0-110.821-.18-110.821-.403 0-.221 49.607-.402 110.821-.402 61.192 0 110.81.181 110.81.402Zm-214.992-7.906a1.425 1.425 0 1 1-2.85-.002 1.425 1.425 0 0 1 2.85.002Zm5.478 0a1.425 1.425 0 1 1-2.85-.002 1.425 1.425 0 0 1 2.85.002Zm5.477 0a1.425 1.425 0 1 1-2.85-.002 1.425 1.425 0 0 1 2.85.002Z"/>
  <path fill="#DFDFDF" d="M407.788 377.518c-.223 0-.403-37.584-.403-83.937 0-46.369.18-83.946.403-83.946.222 0 .402 37.577.402 83.946 0 46.353-.18 83.937-.402 83.937ZM189.025 112.177H97.418V46.929h91.607v65.248Z"/>
  <path fill="#fff" d="M189.743 56.61c0 .223-20.678.403-46.18.403-25.511 0-46.185-.18-46.185-.402 0-.223 20.674-.403 46.185-.403 25.502 0 46.18.18 46.18.403Zm-84.849-4.761c0 .598-.552 1.083-1.233 1.083s-1.234-.485-1.234-1.083.553-1.082 1.234-1.082c.681 0 1.233.484 1.233 1.082Zm4.496 0c0 .598-.552 1.083-1.233 1.083s-1.234-.485-1.234-1.083.553-1.082 1.234-1.082c.681 0 1.233.484 1.233 1.082Zm4.496 0c0 .598-.552 1.083-1.233 1.083s-1.234-.485-1.234-1.083.553-1.082 1.234-1.082c.681 0 1.233.484 1.233 1.082Z"/>
  <path fill="#263138" d="M678.334 355.432h-82.813v-58.984h82.813v58.984Z"/>
  <path fill="#fff" d="M678.983 305.2c0 .144-18.693.261-41.747.261-23.062 0-41.752-.117-41.752-.261 0-.143 18.69-.26 41.752-.26 23.054 0 41.747.117 41.747.26Zm-76.704-4.304c0 .54-.499.978-1.115.978-.615 0-1.114-.438-1.114-.978s.499-.979 1.114-.979c.616 0 1.115.439 1.115.979Zm4.065 0c0 .54-.5.978-1.115.978-.617 0-1.116-.438-1.116-.978s.499-.979 1.116-.979c.615 0 1.115.439 1.115.979Zm4.064 0c0 .54-.499.978-1.115.978s-1.115-.438-1.115-.978.499-.979 1.115-.979 1.115.439 1.115.979Z"/>
  <path fill="#DFDFDF" d="M114.507 339.08H53.46V295.6h61.047v43.48Z"/>
  <path fill="#fff" d="M114.985 302.051c0 .106-13.78.192-30.774.192-17 0-30.778-.086-30.778-.192 0-.105 13.777-.192 30.778-.192 16.994 0 30.774.087 30.774.192Zm-56.542-3.172c0 .398-.369.721-.823.721-.454 0-.821-.323-.821-.721 0-.399.367-.722.821-.722.454 0 .823.323.823.722Zm2.995 0c0 .398-.368.721-.821.721-.454 0-.823-.323-.823-.721 0-.399.369-.722.823-.722.453 0 .821.323.821.722Zm2.997 0c0 .398-.368.721-.823.721-.454 0-.822-.323-.822-.721 0-.399.368-.722.822-.722.455 0 .823.323.823.722Z"/>
  <path fill="#263138" d="M496.27 157.751s-.022-.422-.034-1.211l-.035-3.477-.082-13.223-.168-47.828.319.319-101.864.083h-.008l.403-.402-.032 65.739-.371-.37 73.282.181 21.019.1 5.609.045 1.455.022c.329.007.5.015.507.022.008.007-.149.015-.464.022l-1.413.022-5.535.045-20.934.099-73.526.182-.37.001v-.371l-.032-65.739v-.402h.41c38.504.031 73.978.06 101.864.084h.32l-.001.318-.167 48.025-.081 13.152-.036 3.418c-.012.767-.035 1.144-.035 1.144Z"/>
  <path fill="#263138" d="M496.27 101.766c0 .222-22.816.402-50.954.402-28.147 0-50.958-.18-50.958-.402 0-.222 22.811-.402 50.958-.402 28.138 0 50.954.18 50.954.402Zm-94.339-4.797c0 .602-.556 1.09-1.242 1.09-.687 0-1.243-.488-1.243-1.09 0-.602.556-1.09 1.243-1.09.686 0 1.242.488 1.242 1.09Zm4.529 0c0 .602-.556 1.09-1.242 1.09-.686 0-1.243-.488-1.243-1.09 0-.602.557-1.09 1.243-1.09s1.242.488 1.242 1.09Zm4.531 0c0 .602-.557 1.09-1.243 1.09s-1.243-.488-1.243-1.09c0-.602.557-1.09 1.243-1.09s1.243.488 1.243 1.09Z"/>
  <path fill="#445964" d="m202.044 382.407 40.391 136.224a14.255 14.255 0 0 0 13.668 10.198l163.874.451c8.699.024 15.631-7.26 15.171-15.939-.427-8.038-7.074-14.336-15.129-14.336H357.35l-50.186-139.719h-87.842c-12.045 0-20.699 11.581-17.278 23.121Z"/>
  <path fill="#263138" d="M340.69 510.192c0 .318-16.709.577-37.316.577-20.614 0-37.32-.259-37.32-.577 0-.319 16.706-.577 37.32-.577 20.607 0 37.316.258 37.316.577ZM214.095 363.613c.303-.101 11.461 32.516 24.92 72.841 13.465 40.339 24.13 73.112 23.828 73.212-.302.101-11.459-32.508-24.923-72.847-13.459-40.326-24.127-73.105-23.825-73.206Z"/>
  <path fill="#445964" d="m333.874 649.866-9.987-.236V528.829h9.987v121.037Z"/>
  <path fill="#445964" d="M282.397 649.314h92.967l-42.115-14.624h-9.987l-40.865 14.624Z"/>
  <path fill="#DFDFDF" d="m258.885 328.052 15.382 76.785-2.745 57.546L374.919 445.2l-4.057-50.391-.078-41.698 25.354 49.094 19.741-38.099-36.145-65.417-.003.007c-6.62-6.866-14.373-11.944-23.647-15.296-4.505-1.628-9.288-2.603-14.82-2.837-11.931 3.684-23.862 3.691-35.793.021-1.454.182-3.47.373-6.011.673l-.465.056c-21.942 2.67-38.69 20.901-39.902 42.953l-.208 3.786Z"/>
  <path fill="#DFDFDF" d="M299.46 281.257s-42.483.322-47.746 45.155l-.715 32.874 36.589-.316 11.872-77.713Z"/>
  <path fill="#F9F9F9" d="M400.957 338.93c0 .318-33.431.577-74.66.577-41.243 0-74.667-.259-74.667-.577 0-.318 33.424-.577 74.667-.577 41.229 0 74.66.259 74.66.577Zm0 7.108c0 .318-33.431.576-74.66.576-41.243 0-74.667-.258-74.667-.576 0-.319 33.424-.577 74.667-.577 41.229 0 74.66.258 74.66.577Zm-2.393-12.997c0 .318-32.895.576-73.463.576-40.583 0-73.471-.258-73.471-.576 0-.319 32.888-.577 73.471-.577 40.568 0 73.463.258 73.463.577Z"/>
  <path fill="#263138" d="M370.23 402.205c-.319-.007-.177-18.177.317-40.579.494-22.409 1.152-40.564 1.471-40.557.318.007.176 18.174-.317 40.583-.493 22.401-1.152 40.56-1.471 40.553Z"/>
  <path fill="#FFBD9C" d="M355.705 372.737s20.096 1.437 23.715 6.744c3.618 5.308 9.13 20.448 7.041 20.558-2.088.11-3.608-1.139-3.608-1.139l-5.507-9.753s.885 9.422-2.408 9.609c-3.294.188-19.611 3.449-19.611 3.449l.378-29.468Z"/>
  <path fill="#DFDFDF" d="m251.011 350.535-.074 51.765c.653 12.099 11.996 20.733 23.845 18.151l81.025-16.679-.172-33.195-69.912 13.405-.931-35.136-33.781 1.689Z"/>
  <path fill="#263138" d="M297.239 416.306c-.006-.028.359-.129 1.07-.298l3.141-.707 11.908-2.518 42.176-8.613-.415.504-.056-34.097.679.561-14.244 2.737-55.681 10.59-.606.114.021-.605 1.282-37.329.436-10.425.152-2.74c.043-.62.078-.939.104-.938.026.001.042.323.049.945l-.006 2.748-.165 10.434-.869 37.322-.584-.491 55.649-10.758 14.247-2.726.681-.131-.001.692-.057 34.097v.425l-.415.08-42.257 8.204-11.965 2.236-3.172.551c-.721.116-1.096.163-1.102.136Zm46.478-135.049c.038-.012.151.248.332.759.203.506.411 1.277.627 2.29.405 2.009.63 5.103-.379 8.712-.973 3.597-3.333 7.578-7.032 10.842-3.636 3.343-9.008 5.62-14.748 5.566-5.737.055-11.162-2.284-14.581-5.917-3.463-3.621-4.988-8.052-5.424-11.72-.402-3.722.26-6.745 1.02-8.662.386-.963.736-1.683 1.04-2.137.279-.466.441-.698.476-.678.117.062-.492 1.032-1.091 2.962-.613 1.913-1.122 4.849-.636 8.412.521 3.513 2.069 7.71 5.379 11.084 3.255 3.373 8.365 5.552 13.818 5.502 5.461.047 10.539-2.068 14.043-5.209 3.598-3.1 5.921-6.856 6.954-10.277 1.066-3.429.98-6.419.718-8.409-.267-2.006-.631-3.086-.516-3.12Z"/>
  <path fill="#F9F9F9" d="M347.629 406.517c-.165-.016-.103-1.967.017-5.109s.271-7.479.302-12.27c.026-4.793-.074-9.132-.158-12.275-.082-3.144-.122-5.094.044-5.109.152-.013.479 1.916.771 5.061.294 3.144.524 7.507.497 12.33-.03 4.82-.312 9.18-.642 12.32-.329 3.142-.679 5.068-.831 5.052Zm-4.182.846c-.163-.01-.18-1.947-.146-5.071l.131-12.196-.011-12.198c-.004-3.125.032-5.062.195-5.07.156-.008.408 1.916.621 5.042.214 3.124.372 7.451.35 12.232-.025 4.779-.226 9.104-.47 12.226-.244 3.123-.515 5.045-.67 5.035Z"/>
  <path fill="#445964" d="m424.585 613.038 15.314 42.138 21.73 29.839a4.59 4.59 0 0 1-1.272 6.591 4.572 4.572 0 0 1-4.193.36c-8.762-3.633-40.93-17.157-41.877-20.304-1.098-3.643-21.863-48.961-21.863-48.961l32.161-9.663Z"/>
  <path fill="#fff" fill-opacity=".6" d="m460.357 691.606-47.169-22.763.689 1.77a6.915 6.915 0 0 0 3.157 3.583c3.869 2.085 14.68 7.609 39.004 17.82a4.594 4.594 0 0 0 4.319-.41Zm-43.838-39.576c1.329.316 2.288 1.766 2.027 3.106-.262 1.34-1.729 2.328-3.064 2.035-1.334-.293-2.54-1.999-2.129-3.301.41-1.302 2.196-2.368 3.422-1.763l-.256-.077Z"/>
  <path fill="#263138" d="M443.69 677.07c.282.023.372-2.531 2.401-4.675 1.963-2.204 4.503-2.514 4.455-2.792-.004-.117-.66-.236-1.692.007-1.025.234-2.386.921-3.489 2.119-1.1 1.202-1.668 2.615-1.814 3.656-.153 1.049.022 1.691.139 1.685Zm5.157 4.436c.27.103 1.083-1.777 3.004-3.237 1.889-1.503 3.912-1.827 3.878-2.113.038-.261-2.319-.364-4.483 1.336-2.181 1.678-2.66 3.986-2.399 4.014Zm-13.494-9.45c.274.122 1.509-2.776 4.298-5.308 2.75-2.576 5.739-3.575 5.639-3.857-.018-.249-3.351.379-6.307 3.133-2.984 2.723-3.877 5.993-3.63 6.032Zm-5.726-12.421c.209.207 2.144-1.656 5.107-2.933 2.946-1.318 5.627-1.482 5.616-1.776.035-.25-2.843-.534-6.013.875-3.181 1.38-4.918 3.691-4.71 3.834Zm-4.809-12.256c.224.191 2.004-2.104 5.235-3.194 3.207-1.162 6.031-.476 6.086-.765.034-.114-.626-.461-1.807-.643-1.173-.185-2.87-.124-4.605.479-1.731.609-3.095 1.619-3.897 2.495-.809.878-1.11 1.56-1.012 1.628Zm4.252-5.5c.053-.019-.071-.618-.559-1.602a11.772 11.772 0 0 0-2.869-3.65c-.754-.6-1.613-1.415-2.994-1.511-.689-.053-1.512.391-1.792 1.137-.282.729-.171 1.476.073 2.144 1.077 2.635 4.355 4.313 7.488 3.534 3.125-.838 5.174-3.603 5.469-6.354.029-.694-.075-1.491-.674-2.071-.596-.588-1.557-.541-2.115-.205-1.17.668-1.675 1.687-2.198 2.501a13.15 13.15 0 0 0-1.589 4.355c-.181 1.081-.137 1.69-.08 1.694.189.052.258-2.463 2.264-5.687.525-.765 1.108-1.703 1.969-2.134.419-.212.861-.185 1.154.106.291.275.408.833.363 1.386-.274 2.264-2.152 4.788-4.806 5.454-2.633.685-5.512-.796-6.399-2.908-.205-.512-.27-1.082-.114-1.494.154-.406.533-.648.979-.642.941.011 1.829.676 2.56 1.233 2.956 2.383 3.7 4.828 3.87 4.714Z"/>
  <path fill="#445964" fill-opacity=".302" d="m489.236 602.017-1.324 34.245s34.393 12.846 34.766 19.199l-66.547-.18-.129-53.444 33.234.18Z"/>
  <path fill="#fff" fill-opacity=".302" d="M467.343 633.325c-1.289.349-2.183 1.794-1.888 3.095.295 1.3 1.758 2.221 3.053 1.896 1.294-.326 2.421-2.027 1.981-3.287-.439-1.26-2.215-2.247-3.394-1.621l.248-.083Zm-11.212 21.956-.013-5.33 63.941 2.129s2.959 1.297 2.618 3.381l-66.546-.18Z"/>
  <path fill="#263138" fill-opacity=".302" d="M488.992 635.927c-.012.325-1.637.467-3.239 1.507-1.629.998-2.457 2.402-2.755 2.273-.3-.064.19-2.004 2.152-3.228 1.949-1.243 3.913-.85 3.842-.552Zm6.972 2.904c.074.314-1.335.863-2.443 2.233-1.147 1.338-1.43 2.821-1.753 2.807-.306.05-.525-1.852.884-3.53 1.394-1.69 3.306-1.82 3.312-1.51Zm3.942 8.357c-.296.069-.743-1.555.096-3.331.826-1.782 2.361-2.479 2.498-2.208.182.267-.807 1.218-1.474 2.687-.701 1.452-.797 2.821-1.12 2.852Zm-11.479-19.099c-.137.296-1.626-.156-3.464-.037-1.839.083-3.27.695-3.439.416-.187-.235 1.212-1.433 3.378-1.544 2.163-.127 3.686.911 3.525 1.165Z"/>
  <path fill="#000" fill-opacity=".302" d="m488.966 608.799-.228 6.104-32.705-.387-.027-5.5 32.96-.217Z"/>
  <path fill="#263138" d="M488.567 621.175c.003.135-1.282.332-3.333-.026a15.005 15.005 0 0 1-3.484-1.079 15.676 15.676 0 0 1-1.911-1.021c-.306-.198-.67-.397-1.004-.785-.36-.34-.562-1.201-.145-1.728.342-.51.946-.729 1.426-.738.49-.015.887.084 1.249.175a11.763 11.763 0 0 1 5.138 2.74c1.54 1.433 2.064 2.647 1.953 2.71-.148.106-.896-.912-2.464-2.096a13.326 13.326 0 0 0-2.968-1.681 12.456 12.456 0 0 0-1.912-.595c-.705-.187-1.304-.193-1.486.12-.066.119-.074.166.072.373.152.19.437.377.739.573a17.31 17.31 0 0 0 1.758 1.011c1.159.579 2.268.974 3.218 1.242 1.905.537 3.16.63 3.154.805Z"/>
  <path fill="#263138" d="M488.142 621.639c-.115.05-.757-1.115-.87-3.218a10.814 10.814 0 0 1 .464-3.645c.207-.667.487-1.35.855-2.019.392-.656.869-1.535 2.13-1.676.659-.023 1.205.492 1.39.932.219.451.261.837.339 1.222a7.662 7.662 0 0 1-1.437 5.679c-1.305 1.72-2.662 2.104-2.689 1.994-.109-.163 1.026-.787 2.026-2.44a7.672 7.672 0 0 0 1.062-3.126 6.834 6.834 0 0 0-.056-1.925c-.101-.707-.366-1.278-.63-1.206-.331-.006-.895.525-1.169 1.087a11.152 11.152 0 0 0-.831 1.803 11.965 11.965 0 0 0-.654 3.322c-.097 1.951.247 3.167.07 3.216Z"/>
  <path fill="#263138" d="M456.067 437.853c-39.311 4.064-91.43 9.399-91.43 9.399l7.11 63.937s76.569-20.219 76.022-18.58c-.547 1.639 3.547 136.04 3.547 136.04h46.11l.868-152.206c.314-22.9-19.428-40.947-42.227-38.59Z"/>
  <path fill="#263138" d="M270.568 463.646v19.826c0 13.497 15.384 27.809 28.892 27.809h10.444c8.231 0 21.125-5.986 27.771-10.838l3.992-2.916 48.01 148.621s54.941-9.84 54.941-11.572c0-1.732-37.206-121.728-54.381-177.422-7.012-22.74-31.394-35.963-53.921-28.244-.768.263-1.536.548-2.306.855-24.611 9.837-63.442 33.881-63.442 33.881Z"/>
  <path fill="#445964" d="M444.618 634.576c-.019.007-.101-.173-.244-.528l-.606-1.591a178.627 178.627 0 0 1-2.179-6.169c-1.845-5.375-4.365-13.198-7.434-22.879-6.127-19.365-14.336-46.194-23.277-75.862l-12.534-41.853-5.437-18.272-2.468-8.278c-.793-2.66-1.527-5.202-2.5-7.518-1.88-4.674-4.838-8.247-7.756-10.973-2.951-2.711-5.767-4.754-8.124-6.322a134.077 134.077 0 0 0-5.505-3.515l-1.444-.9c-.322-.209-.482-.324-.473-.342.01-.017.19.064.531.239l1.502.802c1.319.709 3.235 1.811 5.636 3.341 2.406 1.518 5.28 3.519 8.315 6.223 2.999 2.713 6.095 6.357 8.07 11.131 1.02 2.359 1.788 4.932 2.6 7.575l2.532 8.262 5.54 18.241 12.621 41.826 22.951 75.953 7.081 22.981 1.972 6.233.497 1.627c.107.369.152.561.133.568Zm11.588-161.141c.284.197-2.329 4.121-4.517 9.445-2.227 5.311-3.161 9.928-3.501 9.867-.291-.026.148-4.849 2.434-10.31 2.253-5.471 5.36-9.189 5.584-9.002Zm8.809 6.18c.136.321-3.831 2.055-7.957 5.325-4.156 3.233-6.782 6.673-7.062 6.465-.253-.141 2.035-4.011 6.348-7.373 4.288-3.39 8.593-4.696 8.671-4.417Zm-74.82 166.532c-.304.097-13.275-39.675-28.968-88.822-15.699-49.164-28.175-89.084-27.87-89.181.303-.097 13.271 39.667 28.97 88.83 15.693 49.147 28.172 89.076 27.868 89.173Zm-58.922-231.85 157.159 1.51 29.306-82.766-114.311.772-26.53 74.428-45.624.682v5.374Z"/>
  <path fill="#fff" d="M450.426 381.553a6.36 6.36 0 1 1 1.78-12.594 6.361 6.361 0 0 1 5.413 7.187 6.363 6.363 0 0 1-7.193 5.407Z"/>
  <path fill="#807A59" d="M318.448 190.264c1.484-5.507 5.631-8.218 11.033-10.059 5.402-1.841 11.692-.82 16.234 2.634 3.037 2.31 5.416 5.667 9.021 6.919 5.937 2.062 12.896-2.379 18.588.284 3.369 1.575 5.328 5.683 4.431 9.291-.897 3.607-4.553 6.321-8.269 6.137 3.874 1.414 5.079 6.936 2.815 10.382-2.263 3.446-6.913 4.747-10.968 3.99-4.054-.756-7.589-3.213-10.657-5.968-3.068-2.755-5.818-5.872-9.095-8.375-3.278-2.503-7.254-4.396-11.373-4.174-5.576.301-10.362 4.501-12.847 9.499-2.485 4.996-3.059 10.704-3.37 16.275-.31 5.571-.409 11.235-2.061 16.565-.194.626-.489 1.327-1.115 1.519-.906.278-1.676-.682-2.125-1.516a81.847 81.847 0 0 1-9.364-30.445c-.631-6.174-.468-12.021 2.93-17.216 3.397-5.196 11.98-9.023 16.192-5.742Z"/>
  <path fill="#FFBD9C" d="m307.664 216.118-2.852 62.503c-.485 10.629.976 26.342 17.83 26.342 14.623-1.103 18.945-14.756 19.388-24.675.21-4.706.394-8.629.448-9.111 0 0 15.993-.771 17.861-16.467.903-7.585 1.489-23.359 1.855-37.636.393-15.333-11.084-28.39-26.348-30.013l-1.518-.162c-16.467-.785-26.334 12.75-26.664 29.219Z"/>
  <path fill="#EB996E" d="M342.528 270.953s-10.027-.249-19.886-8.004c0 0 3.642 11.826 19.489 12.08l.397-4.076Z"/>
  <path fill="#263138" d="M356.491 227.113c-.084 1.19-1.162 2.099-2.408 2.034-1.242-.065-2.184-1.08-2.099-2.27.084-1.19 1.161-2.1 2.404-2.036 1.245.065 2.187 1.082 2.103 2.272Zm1.503-2.685c-.31.263-1.878-1.177-4.296-1.427-2.411-.286-4.318.768-4.548.445-.115-.145.224-.643 1.057-1.123.82-.478 2.175-.885 3.68-.718 1.505.169 2.712.856 3.38 1.501.683.649.878 1.205.727 1.322Zm-25.298.984c-.084 1.19-1.162 2.099-2.407 2.034-1.243-.065-2.184-1.079-2.1-2.27.084-1.189 1.162-2.1 2.405-2.035 1.245.064 2.186 1.082 2.102 2.271Zm1.49-3.061c-.311.263-1.88-1.176-4.297-1.427-2.411-.285-4.318.769-4.549.445-.114-.144.223-.642 1.058-1.122.82-.479 2.175-.885 3.68-.719 1.505.169 2.712.857 3.381 1.502.68.648.877 1.205.727 1.321Zm6.864 18.845c.003-.139 1.533-.238 4.001-.29.624.002 1.221-.059 1.37-.469.193-.43.006-1.122-.217-1.872-.422-1.553-.862-3.183-1.325-4.89-1.823-6.956-3.072-12.649-2.791-12.72.281-.071 1.987 5.51 3.809 12.466.434 1.713.85 3.347 1.245 4.91.159.726.476 1.564.063 2.455-.216.443-.704.729-1.111.794-.409.078-.757.048-1.064.033-2.465-.128-3.985-.279-3.98-.417Zm-7.292.914c.396.019.121 2.641 2.169 4.74 2.043 2.106 4.871 2.109 4.853 2.478.019.168-.678.443-1.862.349-1.162-.083-2.813-.635-4.066-1.919-1.248-1.287-1.675-2.872-1.65-3.957.016-1.107.378-1.725.556-1.691Zm2.06-29.158c-.309.632-2.689.064-5.561.104-2.873-.018-5.249.568-5.562-.06-.138-.3.326-.876 1.319-1.413.984-.537 2.511-.985 4.233-.994 1.722-.004 3.253.432 4.241.961.996.53 1.466 1.102 1.33 1.402Zm22.031 4.391c-.483.504-2.087-.243-4.087-.483-1.991-.31-3.737-.025-4.066-.64-.142-.297.183-.818.98-1.258.785-.44 2.051-.733 3.423-.545 1.371.19 2.51.814 3.147 1.45.648.639.82 1.229.603 1.476Z"/>
  <path fill="#FFBD9C" d="M307.709 227.892c-.256-.145-10.467-4.343-11.268 6.438-.801 10.781 10.197 9.361 10.238 9.053.042-.308 1.03-15.491 1.03-15.491Z"/>
  <path fill="#EB996E" d="M303.687 239.054c-.045-.038-.197.118-.526.24a1.89 1.89 0 0 1-1.407-.076c-1.109-.503-1.935-2.382-1.843-4.329a6.232 6.232 0 0 1 .726-2.65c.388-.764.94-1.277 1.521-1.336a.96.96 0 0 1 1.072.596c.122.313.037.522.093.546.029.028.245-.164.191-.616a1.198 1.198 0 0 0-.374-.707c-.243-.229-.616-.365-1.019-.352-.837-.003-1.642.705-2.088 1.527a6.382 6.382 0 0 0-.875 2.956c-.092 2.178.87 4.293 2.396 4.859.744.255 1.395.073 1.741-.157.354-.242.428-.479.392-.501Z"/>
  <path fill="#807A59" d="M365.872 214.164c-7.124 1.106-14.722-1.474-19.697-6.688-3.481-3.649-5.937-8.623-10.575-10.608-3.122-1.336-6.782-1.021-9.913.297-3.13 1.317-5.791 3.554-8.131 6.014 2.188 8.311-.803 17.009-3.756 25.08-.326.892-.705 1.85-1.516 2.346-1.376.842-3.199-.124-4.185-1.401-1.577-2.045-1.987-4.741-2.171-7.317-.42-5.866.07-11.848 1.96-17.417 1.89-5.57 5.233-10.718 9.895-14.309 5.826-4.488 13.516-6.32 20.818-5.429 7.302.891 14.179 4.397 19.548 9.421 2.491 2.332 4.722 5.067 5.793 8.304l1.93 11.707Z"/>
  <path fill="#263138" d="M111.653 80.912v4.878h-1.645V73.315h4.604c1.366 0 2.434.349 3.21 1.047.776.696 1.162 1.62 1.162 2.77 0 1.21-.377 2.143-1.136 2.798-.757.655-1.843.982-3.254.982h-2.941Zm0-1.35h2.959c.88 0 1.554-.208 2.022-.623.468-.413.702-1.012.702-1.795 0-.744-.234-1.337-.702-1.784-.468-.445-1.112-.676-1.929-.693h-3.052v4.895Zm13.237.017 3.257-6.263h1.87l-4.305 7.822v4.652h-1.644v-4.652l-4.305-7.823h1.887l3.24 6.264Zm15.508-4.912h-4.012V85.79h-1.636V74.667h-4.004v-1.352h9.652v1.352Zm11.445 11.123h-1.653v-5.755h-6.292v5.755h-1.647V73.315h1.647v5.37h6.292v-5.37h1.653V85.79Zm12.526-5.834c0 1.223-.205 2.29-.617 3.202-.41.912-.992 1.609-1.747 2.088-.755.48-1.636.72-2.643.72-.983 0-1.852-.243-2.614-.725-.76-.483-1.352-1.17-1.77-2.065-.421-.895-.635-1.93-.647-3.109v-.9c0-1.199.208-2.26.627-3.182.415-.918 1.006-1.623 1.77-2.11.761-.489 1.636-.735 2.619-.735.998 0 1.882.243 2.643.725.764.483 1.352 1.182 1.762 2.1.412.918.617 1.986.617 3.202v.79Zm-1.635-.806c0-1.478-.299-2.612-.893-3.402-.594-.792-1.425-1.187-2.494-1.187-1.042 0-1.861.395-2.458 1.187-.597.79-.904 1.887-.922 3.29v.919c0 1.432.302 2.558.905 3.377.603.818 1.433 1.228 2.49 1.228 1.065 0 1.888-.386 2.47-1.161.583-.772.884-1.88.902-3.325v-.926Zm13.701 6.64h-1.653l-6.286-9.612v9.612h-1.654V73.315h1.654l6.301 9.656v-9.656h1.638V85.79Zm260.642 42.38c-.224 1.908-.927 3.38-2.117 4.416-1.185 1.036-2.76 1.557-4.729 1.557-2.134 0-3.844-.766-5.131-2.293-1.283-1.532-1.926-3.579-1.926-6.143v-1.734c0-1.679.296-3.155.897-4.429.601-1.273 1.448-2.251 2.549-2.931 1.1-.682 2.375-1.024 3.818-1.024 1.923 0 3.46.533 4.615 1.603 1.16 1.07 1.833 2.551 2.024 4.446h-2.396c-.203-1.443-.652-2.483-1.342-3.126-.695-.648-1.66-.969-2.901-.969-1.519 0-2.713.563-3.577 1.688-.864 1.121-1.295 2.724-1.295 4.797v1.747c0 1.963.41 3.52 1.227 4.679.822 1.155 1.965 1.734 3.438 1.734 1.321 0 2.337-.3 3.044-.897.707-.596 1.177-1.636 1.406-3.121h2.396Zm8.565-2.323c-2.041-.588-3.527-1.311-4.458-2.166-.931-.854-1.397-1.912-1.397-3.168 0-1.422.571-2.598 1.706-3.528 1.139-.931 2.617-1.396 4.433-1.396 1.24 0 2.35.241 3.319.719.974.478 1.723 1.138 2.257 1.984.533.842.8 1.764.8 2.762h-2.392c0-1.091-.347-1.95-1.042-2.576-.694-.622-1.676-.935-2.942-.935-1.173 0-2.088.258-2.744.774-.66.52-.986 1.236-.986 2.153 0 .736.309 1.363.935 1.87.623.508 1.686.973 3.189 1.396 1.498.423 2.675.889 3.522 1.396.847.508 1.473 1.1 1.884 1.781.411.677.614 1.477.614 2.394 0 1.464-.572 2.636-1.711 3.516-1.142.88-2.667 1.32-4.576 1.32a8.523 8.523 0 0 1-3.476-.711c-1.071-.478-1.901-1.13-2.485-1.955-.584-.824-.872-1.763-.872-2.812h2.392c0 1.087.402 1.945 1.21 2.576.805.63 1.88.947 3.231.947 1.257 0 2.218-.258 2.887-.77.674-.512 1.008-1.21 1.008-2.089 0-.884-.313-1.57-.932-2.052-.618-.482-1.744-.96-3.374-1.43Zm15.072 0c-2.04-.588-3.527-1.311-4.458-2.166-.931-.854-1.397-1.912-1.397-3.168 0-1.422.571-2.598 1.706-3.528 1.139-.931 2.617-1.396 4.433-1.396 1.241 0 2.35.241 3.319.719.974.478 1.723 1.138 2.257 1.984.533.842.8 1.764.8 2.762h-2.392c0-1.091-.347-1.95-1.042-2.576-.694-.622-1.676-.935-2.942-.935-1.173 0-2.087.258-2.743.774-.661.52-.987 1.236-.987 2.153 0 .736.309 1.363.936 1.87.622.508 1.685.973 3.188 1.396 1.498.423 2.676.889 3.522 1.396.847.508 1.474 1.1 1.884 1.781.411.677.614 1.477.614 2.394 0 1.464-.571 2.636-1.71 3.516-1.143.88-2.667 1.32-4.577 1.32a8.523 8.523 0 0 1-3.476-.711c-1.071-.478-1.901-1.13-2.485-1.955-.584-.824-.872-1.763-.872-2.812h2.392c0 1.087.402 1.945 1.211 2.576.804.63 1.879.947 3.23.947 1.257 0 2.219-.258 2.887-.77.674-.512 1.008-1.21 1.008-2.089 0-.884-.313-1.57-.931-2.052-.618-.482-1.745-.96-3.375-1.43Z"/>
  <path fill="#fff" d="M619.327 338.023h-2.2v-7.656h-8.371v7.656h-2.193v-16.596h2.193v7.143h8.371v-7.143h2.2v16.596Zm15.032-14.798h-5.338v14.798h-2.176v-14.798h-5.327v-1.798h12.841v1.798Zm5.296-1.798 5.427 13.543 5.432-13.543h2.838v16.596h-2.188v-6.461l.203-6.976-5.451 13.437h-1.678l-5.44-13.405.218 6.944v6.461h-2.192v-16.596h2.831Zm19.767 14.799h7.869v1.797h-10.072v-16.596h2.203v14.799Z"/>
  <path fill="#DFDFDF" d="M63.572 546.349c5.511-2.841 12.001-3.211 18.12-2.2 3.287.543 6.714 1.526 8.95 3.993 2.238 2.467 2.661 6.808.093 8.929-1.529 1.261-3.66 1.453-5.644 1.43-4.79-.055-10.105-.898-13.931 1.982-2.184 1.643-3.637 4.374-6.247 5.182-2.554.791-5.436-.715-6.79-3.019-1.354-2.302-1.4-5.181-.768-7.777 0 0 .664-5.657 6.217-8.52Zm-12.628-24.356c3.37 4.81 9.92 3.217 12.958.282 3.037-2.936 4.32-7.19 5.49-11.248 2.67-9.27 5.36-18.995 3.376-28.436-.594-2.822-1.65-5.637-3.635-7.731-1.985-2.093-5.037-3.339-7.828-2.602-3.303.871-5.355 4.103-6.838 7.178a67.738 67.738 0 0 0-6.705 29.09c-.016 4.685.537 9.599 3.182 13.467Zm-9.254 6.901c3.659-4.339 4.353-10.668 2.725-16.104-1.628-5.436-5.307-10.06-9.546-13.836a51.4 51.4 0 0 0-17.094-10.078c-2.472-.868-5.08-1.553-7.688-1.305-2.609.249-5.235 1.581-6.452 3.9-1.799 3.429-.074 7.587 1.792 10.979a130.119 130.119 0 0 0 11.227 17.084c3.365 4.335 7.22 8.611 12.35 10.57 5.128 1.959 10.456 1.729 13.174-1.825l-.488.615Z"/>
  <path fill="#263138" d="M50.716 594.543c.063.004.166-.775.305-2.185l.581-5.964c.278-2.51.645-5.497 1.343-8.749.696-3.244 1.784-6.76 3.182-10.325 1.448-3.544 3.213-6.766 5.277-9.342 2.049-2.588 4.431-4.461 6.671-5.542a18.702 18.702 0 0 1 5.618-1.748c1.396-.143 2.177-.253 2.178-.314 0-.063-.782-.073-2.216-.035-1.42.095-3.505.454-5.859 1.523-2.36 1.046-4.887 2.949-7.037 5.59-2.166 2.63-3.996 5.923-5.47 9.531-1.422 3.628-2.494 7.18-3.159 10.494-.662 3.308-.966 6.328-1.164 8.858-.19 2.533-.261 4.584-.296 6.001-.031 1.418-.015 2.203.046 2.207Z"/>
  <path fill="#263138" d="M51.128 589.954c.03-.001.05-.351.058-1.014l-.008-2.9c-.006-2.516-.005-6.158.13-10.655.223-8.994.998-18.674 2.495-32.321 1.417-12.833 3.32-27.766 5.328-37.476.43-2.208.864-4.196 1.273-5.935.389-1.745.721-3.248 1.042-4.465l.678-2.818c.146-.648.207-.992.178-1.001-.03-.009-.151.319-.353.951l-.843 2.778c-.374 1.206-.756 2.7-1.193 4.437a131.452 131.452 0 0 0-1.406 5.92c-1.987 8.798-4.09 21.094-5.602 34.774-1.5 13.675-2.175 26.127-2.235 35.144a187.99 187.99 0 0 0 .157 10.676l.177 2.898c.05.662.093 1.009.124 1.007Z"/>
  <path fill="#263138" d="M51.188 565.938c.062-.002.052-1.078-.021-3.029-.112-1.947-.38-4.76-.929-8.207-.582-3.438-1.394-7.521-2.671-11.957-.553-2.028-1.854-6.888-5.005-14.149-4.15-9.838-9.79-17.882-14.695-22.865-1.151-1.321-2.433-2.276-3.458-3.21-.53-.449-.999-.895-1.477-1.249l-1.34-.924c-1.616-1.103-2.52-1.685-2.553-1.633-.145.197 3.616 2.409 8.366 7.457 4.73 5.038 10.212 13.027 14.33 22.782 2.295 5.292 3.896 10.012 5.032 14.019 1.312 4.393 2.184 8.434 2.842 11.838.626 3.412.989 6.198 1.207 8.127.18 1.931.31 3.003.372 3Zm-23.232 42.364 2.408 32.969h42.39l2.408-32.969H27.956Zm-4.095-12.995v12.995H80.22v-12.995H23.862Z"/>
  <path fill="#445964" d="M23.861 640.01v3.602H79.29v-3.602H23.86Zm5.245 9.942-2.597-6.34h50.76l-3.028 6.34H29.107Z"/>
  <path fill="#DFDFDF" d="M74.375 619.077c.01.008-.058.111-.198.303l-.633.839-2.47 3.158-.11.14-.106-.146-6.066-8.384h.349l-5.973 8.45-.188.265-.209-.249-7.083-8.421.408-.005-.39.489-6.334 7.934-.21.265-.196-.276-5.976-8.448.348.017-7.36 8.378-.13.149-.1-.168-2.305-3.868-.59-1.03c-.131-.236-.193-.361-.181-.368.011-.006.095.105.246.327l.655.991 2.419 3.798-.23-.019 7.24-8.48.184-.214.165.23 6.03 8.411-.407-.011 6.32-7.946.39-.49.2-.252.208.247 7.064 8.438-.397.016 6.032-8.408.177-.247.173.247c2.39 3.41 4.42 6.306 5.938 8.475l-.215-.007 2.569-3.077.687-.796c.159-.177.245-.265.255-.257Z"/>
  <path fill="#445964" d="M75.752 608.085c0 .145-10.621.263-23.72.263-13.104 0-23.723-.118-23.723-.263 0-.146 10.619-.264 23.723-.264 13.099 0 23.72.118 23.72.264Z"/>
  <path fill="#263138" d="M77.893 643.967c0 .145-11.543.264-25.779.264-14.241 0-25.782-.119-25.782-.264 0-.145 11.54-.264 25.782-.264 14.236 0 25.78.119 25.78.264Zm501.114-379.558-29.446 123.062h8.235l29.008-123.062h-7.797Zm-11.308 81.052c-.532 2.256 13.335 69.334 13.335 69.334h-6.675l-10.473-53.158 3.813-16.176Z"/>
  <path fill="#445964" d="M665.767 649.604H527.818V503.482h137.949v146.122Z"/>
  <path fill="#263138" d="M672.54 531.603h-6.773v-6.768h6.773v6.768Zm0 21.488h-6.773v-6.768h6.773v6.768Zm0 21.488h-6.773v-6.768h6.773v6.768Zm0 21.489h-6.773v-6.769h6.773v6.769Z"/>
  <path fill="#263138" d="M672.788 569.789c-.007-.053.732-.223 2.084-.456 1.351-.222 3.323-.543 5.803-.549 2.452.001 5.532.421 8.383 2.206 1.404.889 2.726 2.15 3.585 3.785.863 1.628 1.223 3.565 1.071 5.491a11.624 11.624 0 0 1-1.76 5.3c-.97 1.539-2.232 2.791-3.566 3.768-2.695 1.956-5.631 2.822-8.067 3.183-2.454.368-4.462.289-5.831.199-1.371-.106-2.119-.245-2.114-.295.005-.061.763-.027 2.126-.018 1.361-.006 3.343-.016 5.726-.446 2.367-.424 5.172-1.321 7.719-3.219 2.525-1.854 4.716-4.891 4.964-8.534.142-1.791-.188-3.574-.967-5.063-.774-1.497-1.978-2.674-3.287-3.527-2.662-1.714-5.596-2.19-7.993-2.261-2.421-.067-4.391.164-5.751.29-1.36.138-2.117.203-2.125.146Z"/>
  <path fill="#263138" d="M671.103 548.43c-.012-.022.206-.164.645-.392a13.875 13.875 0 0 1 2.007-.811 15.884 15.884 0 0 1 7.924-.44c.834.179 1.715.462 2.524 1.003a4.39 4.39 0 0 1 1.785 2.406c.58 2.047-.086 4.389-1.55 6.162-.734.887-1.687 1.666-2.855 2.101-1.142.446-2.581.453-3.736-.2-1.136-.598-2.147-1.784-2.146-3.245-.004-1.448.963-2.711 2.191-3.349 1.257-.645 2.679-.671 3.946-.414 1.286.26 2.463.858 3.442 1.64 1.959 1.571 3.189 3.846 3.439 6.14.272 2.318-.562 4.515-1.765 6.119-1.209 1.63-2.738 2.787-4.241 3.579-3.056 1.546-5.84 1.827-7.686 2.003-.934.076-1.661.099-2.153.104-.493.003-.752-.011-.753-.038-.004-.064 1.028-.138 2.872-.378 1.82-.266 4.552-.642 7.45-2.192 1.424-.789 2.86-1.924 3.971-3.469 1.107-1.528 1.833-3.545 1.568-5.643-.243-2.088-1.396-4.185-3.192-5.607-.896-.709-1.959-1.244-3.111-1.474-1.144-.232-2.388-.188-3.415.343-1.009.521-1.776 1.565-1.762 2.635-.016 1.071.768 2.049 1.718 2.551.958.542 2.094.546 3.099.173 1.008-.365 1.876-1.052 2.549-1.854 1.35-1.59 1.961-3.738 1.479-5.5-.482-1.811-2.24-2.708-3.793-3.041a16.335 16.335 0 0 0-7.711.186c-1.788.482-2.709.971-2.74.902Z"/>
  <path fill="#263138" d="M671.172 527.456c-.007-.037.516-.212 1.504-.277.983-.067 2.442.022 4.14.58 1.677.573 3.601 1.652 5.154 3.469 1.568 1.797 2.583 4.365 2.675 7.108.077 2.743-.778 5.369-2.234 7.26-1.439 1.909-3.294 3.104-4.932 3.778-1.66.661-3.111.839-4.097.832-.99-.004-1.523-.147-1.517-.184-.02-.179 2.242.232 5.388-1.17 1.535-.708 3.251-1.891 4.56-3.696 1.324-1.782 2.097-4.228 2.027-6.795-.088-2.567-1.009-4.959-2.439-6.657-1.418-1.722-3.203-2.797-4.779-3.41-3.226-1.206-5.459-.658-5.45-.838Z"/>
  <path fill="#263138" d="M568.779 425.848s.548.875 1.161 2.727c.617 1.847 1.277 4.65 1.831 8.3.57 3.648 1.052 8.139 1.53 13.355.496 5.214.921 11.167 1.759 17.692.215 1.63.475 3.293.809 4.974.347 1.673.748 3.398 1.491 4.976.789 1.503 2.086 2.895 3.382 4.175a26.532 26.532 0 0 0 4.462 3.438c3.259 2.002 7.078 3.382 11.136 3.787 4.038.417 8.367-.158 12.184-2.105 3.821-1.891 6.923-5.508 7.874-9.877.468-2.159.374-4.487-.464-6.568-.834-2.09-2.386-3.874-4.284-5.172-1.921-1.269-4.187-2.069-6.524-2.172-2.322-.087-4.722.518-6.606 1.942-.935.702-1.74 1.593-2.237 2.638a5.44 5.44 0 0 0-.434 3.373c.451 2.307 2.152 4.306 4.278 5.434 2.147 1.165 4.609 1.64 7.047 1.947 2.448.325 4.903.463 7.34.508 4.879.089 9.689-.305 14.398-.812 9.412-1.05 18.493-2.56 27.267-2.655 8.732-.144 17.215 1.124 24.278 4.582 3.513 1.719 6.643 3.98 9.036 6.743 2.429 2.735 3.966 6.011 4.692 9.263 1.415 6.57-.104 12.814-2.682 17.383-2.616 4.617-6.126 7.707-9.169 9.78a34.332 34.332 0 0 1-7.574 3.861c-1.835.652-2.84.857-2.84.857s.236-.102.707-.262a43.231 43.231 0 0 0 2.075-.747 35.863 35.863 0 0 0 7.455-3.967c2.987-2.092 6.42-5.182 8.953-9.74 2.495-4.504 3.936-10.645 2.519-17.039-.726-3.167-2.228-6.329-4.604-8.981-2.34-2.677-5.408-4.877-8.861-6.552-6.945-3.368-15.315-4.604-23.974-4.44-8.701.113-17.747 1.631-27.192 2.698-4.725.513-9.566.915-14.497.828-2.463-.043-4.948-.183-7.43-.511-2.471-.312-5.029-.792-7.33-2.038-2.292-1.223-4.17-3.382-4.682-5.992-.259-1.297-.064-2.681.498-3.865.567-1.189 1.465-2.17 2.484-2.935 2.048-1.545 4.638-2.192 7.118-2.096 2.498.113 4.896.965 6.931 2.313 2.014 1.379 3.671 3.283 4.568 5.537.902 2.251.99 4.733.491 7.02-1.007 4.614-4.301 8.414-8.286 10.373-3.981 2.018-8.442 2.589-12.594 2.149-4.172-.429-8.083-1.858-11.416-3.922a27.058 27.058 0 0 1-4.559-3.543c-1.342-1.347-2.607-2.682-3.492-4.365-.784-1.688-1.172-3.434-1.517-5.132a76.609 76.609 0 0 1-.789-5.017c-.806-6.558-1.19-12.51-1.643-17.726-.436-5.217-.871-9.705-1.392-13.35-.505-3.646-1.113-6.444-1.676-8.296-.278-.926-.529-1.623-.729-2.076-.195-.456-.277-.7-.277-.7Z"/>
  <path fill="#263138" d="M657.92 643.493s-.013-.224-.019-.645l-.021-1.869-.041-7.244-.092-27.37-.179-97.141.352.352-124.694.05h-.013l.403-.402-.059 134.269-.344-.344c37.434.074 68.565.134 90.363.176l25.333.09 6.691.04c1.518.013 2.32.038 2.32.038s-.751.026-2.245.039l-6.625.039-25.255.089-90.582.177h-.344v-.344l-.058-134.269v-.402h.415l124.694.05h.353v.352l-.179 97.367-.092 27.291-.041 7.175-.021 1.831c-.006.408-.02.605-.02.605Z"/>
  <path fill="#263138" d="M622.801 525.739a.642.642 0 1 1-1.283-.003.642.642 0 0 1 1.283.003Zm3.523 0a.641.641 0 1 1-1.282-.002.641.641 0 0 1 1.282.002Zm3.523 0a.64.64 0 1 1-1.282-.002.64.64 0 0 1 1.282.002Zm3.524 0a.642.642 0 1 1-1.283-.003.642.642 0 0 1 1.283.003Zm3.523 0a.64.64 0 1 1-1.282-.002.64.64 0 0 1 1.282.002Zm3.523 0a.64.64 0 1 1-1.282-.002.64.64 0 0 1 1.282.002Zm3.524 0a.64.64 0 1 1-1.282-.002.64.64 0 0 1 1.282.002Zm-1.624 2.365a.641.641 0 1 1-1.282 0 .641.641 0 0 1 1.282 0Zm-3.605 0a.641.641 0 1 1-1.282 0 .641.641 0 0 1 1.282 0Zm-3.605 0a.641.641 0 1 1-1.282 0 .641.641 0 0 1 1.282 0Zm-3.605 0a.641.641 0 1 1-1.282 0 .641.641 0 0 1 1.282 0Zm-3.605 0a.641.641 0 1 1-1.282 0 .641.641 0 0 1 1.282 0Zm-3.605 0a.641.641 0 1 1-1.282 0 .641.641 0 0 1 1.282 0Zm-1.491 2.678a.643.643 0 0 1-1.283 0 .64.64 0 1 1 1.283 0Zm3.523 0a.642.642 0 1 1-1.284-.002.642.642 0 0 1 1.284.002Zm3.523 0a.642.642 0 1 1-1.283-.001.642.642 0 0 1 1.283.001Zm3.524 0a.643.643 0 0 1-1.283 0 .64.64 0 1 1 1.283 0Zm3.523 0a.642.642 0 1 1-1.283-.001.642.642 0 0 1 1.283.001Zm3.523 0a.642.642 0 1 1-1.283-.001.642.642 0 0 1 1.283.001Zm3.524 0a.642.642 0 1 1-1.283-.001.642.642 0 0 1 1.283.001Zm-1.624 2.366a.641.641 0 1 1-1.282 0 .641.641 0 0 1 1.282 0Zm-3.605 0a.641.641 0 1 1-1.282 0 .641.641 0 0 1 1.282 0Zm-3.605 0a.641.641 0 1 1-1.282 0 .641.641 0 0 1 1.282 0Zm-3.605 0a.641.641 0 1 1-1.282 0 .641.641 0 0 1 1.282 0Zm-3.605 0a.641.641 0 1 1-1.282 0 .641.641 0 0 1 1.282 0Zm-3.605 0a.641.641 0 1 1-1.282 0 .641.641 0 0 1 1.282 0Zm-1.491 2.677a.642.642 0 1 1-1.284-.002.642.642 0 0 1 1.284.002Zm3.523 0a.641.641 0 1 1-1.282 0 .641.641 0 0 1 1.282 0Zm3.523 0a.641.641 0 1 1-1.282 0 .641.641 0 0 1 1.282 0Zm3.524 0a.642.642 0 1 1-1.284-.002.642.642 0 0 1 1.284.002Zm3.523 0a.641.641 0 1 1-1.282 0 .641.641 0 0 1 1.282 0Zm3.523 0a.641.641 0 1 1-1.282 0 .641.641 0 0 1 1.282 0Zm3.524 0a.641.641 0 1 1-1.282 0 .641.641 0 0 1 1.282 0Zm-1.624 2.366a.64.64 0 1 1-1.285 0 .64.64 0 0 1 1.285 0Zm-3.605 0a.64.64 0 1 1-1.28 0 .64.64 0 0 1 1.28 0Zm-3.605 0a.64.64 0 1 1-1.28 0 .64.64 0 0 1 1.28 0Zm-3.605 0a.64.64 0 1 1-1.285 0 .64.64 0 0 1 1.285 0Zm-3.605 0a.64.64 0 1 1-1.28 0 .64.64 0 0 1 1.28 0Zm-3.605 0a.64.64 0 1 1-1.28 0 .64.64 0 0 1 1.28 0Z"/>
  <path fill="#DFDFDF" d="M574.042 381.394s.901-.059 2.512.438c1.596.484 3.905 1.626 6.093 3.98 2.209 2.334 4.048 5.888 5.387 10.195a99.656 99.656 0 0 1 3.394 14.929c1.722 11.237 1.97 24.803.985 39.779-.375 3.722-1.175 7.687-3.463 11.034-1.125 1.656-2.575 3.152-4.356 4.215-1.761 1.062-3.905 1.666-6.032 1.431-2.106-.215-4.196-1.095-5.729-2.663a7.067 7.067 0 0 1-1.692-2.805c-.341-1.075-.332-2.246-.045-3.323.58-2.143 2.135-4.07 4.315-4.859 1.083-.393 2.321-.382 3.418.009 1.092.402 2.026 1.151 2.725 2.054 1.42 1.822 1.832 4.236 1.501 6.407-.308 2.198-1.189 4.213-2.228 6.077a23.912 23.912 0 0 1-8.805 8.869c-7.217 4.226-16.231 3.98-22.892.319-3.358-1.809-6.142-4.368-8.347-7.19-2.217-2.826-3.865-5.932-5.069-9.065-2.396-6.298-3.088-12.584-3.386-18.235-.308-5.671.011-10.809-.553-15.252-.281-2.215-.74-4.257-1.437-6.034a17.063 17.063 0 0 0-2.585-4.508c-1.965-2.467-4.184-3.715-5.737-4.242-1.572-.533-2.47-.531-2.46-.589 0 0 .898-.055 2.511.436 1.594.484 3.888 1.713 5.929 4.197a17.199 17.199 0 0 1 2.699 4.566c.732 1.806 1.22 3.876 1.527 6.117.612 4.499.331 9.645.675 15.279.331 5.619 1.056 11.843 3.441 18.025 1.195 3.073 2.825 6.114 5.002 8.869 2.166 2.751 4.885 5.231 8.141 6.973 6.452 3.527 15.191 3.743 22.145-.348a23.143 23.143 0 0 0 8.504-8.581c1.005-1.801 1.845-3.747 2.128-5.792.305-2.031-.078-4.18-1.342-5.807-.621-.803-1.436-1.448-2.365-1.79a4.308 4.308 0 0 0-2.874-.006c-1.87.662-3.302 2.408-3.807 4.304-.562 1.919.153 3.977 1.535 5.372 1.372 1.41 3.297 2.234 5.235 2.432 1.95.217 3.896-.326 5.555-1.317 1.664-.988 3.043-2.399 4.119-3.977 2.185-3.178 2.982-7.006 3.36-10.675 1.02-14.888.833-28.444-.809-39.623a101.378 101.378 0 0 0-3.26-14.878c-1.289-4.286-3.058-7.796-5.189-10.117-2.113-2.343-4.355-3.511-5.912-4.037-1.573-.54-2.472-.536-2.462-.593Z"/>
  <path fill="#DFDFDF" d="M561.91 413.521h-51.362v-9.777h51.362v9.777Z"/>
  <path fill="#263138" d="M191.179 648.912h-66.992V504.827h66.992v144.085Z"/>
  <path fill="#445964" d="M185.417 633.736s-.016-.218-.023-.623l-.024-1.79-.048-6.894-.105-25.74c-.046-21.962-.109-52.888-.182-88.874l.382.382-56.042.02h-.009l.403-.402-.112 123.921-.291-.291 40.922.157 11.185.072 2.926.032c.663.01 1.018.03 1.018.03s-.314.02-.959.031l-2.873.031-11.12.073-41.099.156-.291.002v-.293l-.111-123.921-.001-.403h.412l56.042.02h.383l-.001.383-.181 89.131-.106 25.653-.048 6.816-.024 1.745c-.007.39-.023.576-.023.576Z"/>
  <path fill="#445964" d="M181.957 520.303c-.022-.022-.045-.54-.076-1.503l-.101-4.175.177.176c-8.67.134-27.251.226-48.737.226h-.001c.179-.179-.404.401.401-.402v1.451l-.001 1.436-.001 2.79-.4-.399c13.632.008 25.746.09 34.511.172l10.372.118 2.834.055c.653.018 1.004.037 1.022.055.018.018-.296.036-.916.054l-2.744.055-10.278.119c-8.747.081-21.003.163-34.801.172h-.401v-.401l-.002-2.79v-2.887c.804-.804.223-.223.404-.403h.001c21.486 0 40.067.092 48.737.226l.181.003-.005.174-.1 4.278c-.032.95-.054 1.422-.076 1.4Zm-43.833 4.079c0 .222-1.007.402-2.248.402-1.241 0-2.247-.18-2.247-.402 0-.222 1.006-.402 2.247-.402 1.241 0 2.248.18 2.248.402Zm42.53 7.435c0 .222-10.374.402-23.167.402-12.799 0-23.17-.18-23.17-.402 0-.222 10.371-.403 23.17-.403 12.793 0 23.167.181 23.167.403Zm.2 8.98c0 .222-10.195.402-22.768.402-12.578 0-22.77-.18-22.77-.402 0-.222 10.192-.402 22.77-.402 12.573 0 22.768.18 22.768.402Z"/>
  <path fill="#DFDFDF" d="M161.172 561.78a3.685 3.685 0 0 1-3.687 3.684 3.685 3.685 0 1 1 0-7.368 3.685 3.685 0 0 1 3.687 3.684Z"/>
  <path fill="#445964" d="M147.095 561.61c0 .223-2.207.403-4.928.403-2.723 0-4.929-.18-4.929-.403 0-.222 2.206-.402 4.929-.402 2.721 0 4.928.18 4.928.402Zm29.928-.949c0 .222-2.101.403-4.691.403-2.592 0-4.691-.181-4.691-.403 0-.222 2.099-.402 4.691-.402 2.59 0 4.691.18 4.691.402Z"/>
  <path fill="#263138" d="M126.487 577.133s-.885-.041-2.509-.46c-1.613-.428-3.983-1.276-6.633-3.067-2.648-1.765-5.551-4.506-7.995-8.331-2.459-3.812-4.436-8.643-5.832-14.153-1.407-5.5-2.328-11.755-1.85-18.46.452-6.663 2.507-13.861 7.034-19.98 2.23-3.055 5.054-5.82 8.4-7.973a28.84 28.84 0 0 1 5.391-2.676 29.538 29.538 0 0 1 5.966-1.422c4.088-.568 8.265-.489 12.447-.734 4.16-.235 8.432-.903 12.236-2.818 3.797-1.858 6.787-5.268 7.595-9.326.921-4-.118-8.318-2.752-11.299-2.574-2.989-6.475-4.84-10.264-4.611-1.882.134-3.742.759-5.16 1.912-1.423 1.132-2.282 2.899-2.159 4.66.253 3.557 3.513 6.518 6.895 6.656 3.448.235 6.676-1.6 8.84-3.967 2.181-2.441 3.43-5.455 4.277-8.386.837-2.953 1.347-5.879 1.784-8.665 1.571-11.204 1.04-20.424.818-26.735l-.369-7.285-.089-1.896c-.016-.427-.017-.647-.003-.647.014-.001.042.216.085.642l.169 1.89c.134 1.663.33 4.116.52 7.28.317 6.312.94 15.544-.568 26.832-.422 2.81-.916 5.749-1.749 8.754-.847 2.983-2.105 6.092-4.379 8.662-2.263 2.49-5.637 4.459-9.385 4.227-3.723-.17-7.269-3.311-7.587-7.321-.148-2.004.841-4.03 2.42-5.285 1.571-1.28 3.568-1.944 5.587-2.095 4.091-.247 8.177 1.706 10.915 4.865 2.799 3.155 3.912 7.762 2.937 11.985-.462 2.111-1.409 4.155-2.838 5.833-1.391 1.707-3.214 3.039-5.176 4.037-3.961 1.994-8.341 2.663-12.553 2.9-4.225.243-8.38.163-12.386.716-2.002.265-3.95.717-5.81 1.374a28.115 28.115 0 0 0-5.241 2.591c-3.261 2.087-6.026 4.781-8.216 7.765-4.446 5.974-6.49 13.018-6.966 19.59-.501 6.608.375 12.806 1.735 18.27 1.351 5.477 3.269 10.267 5.66 14.052 2.378 3.797 5.204 6.529 7.793 8.314 2.59 1.808 4.914 2.694 6.5 3.169.798.233 1.416.384 1.835.464.418.087.632.139.63.152Zm135.804-186.977H103.66V281.317h158.631v108.839Z"/>
  <path fill="#263138" d="M192.31 416.374h-21.598v-41.057h21.598v41.057Z"/>
  <path fill="#263138" d="M119.449 414.795v14.777h81.841V649.63h7.532V429.572l341.826 1.685V649.63h7.384V430.847l52.752.423v-17.749l-491.335 1.274Z"/>
  <path fill="#263138" d="m171.823 426.699 32.272 23.219-2.805 2.69-32.537-24.496 3.07-1.413Zm416.625 2.166-37.446 26.644 2.805 2.69 37.711-27.92-3.07-1.414Zm-265.385-19.509h-84.594v6.219h84.594v-6.219Z"/>
</svg>
